<?xml version="1.0" encoding="UTF-8" standalone="no"?>
<!DOCTYPE svg PUBLIC "-//W3C//DTD SVG 1.1//EN"
 "http://www.w3.org/Graphics/SVG/1.1/DTD/svg11.dtd">
<!-- Generated by graphviz version 2.40.1 (20161225.0304)
 -->
<!-- Title: dependencies Pages: 1 -->
<svg width="504pt" height="284pt"
 viewBox="0.00 0.00 504.00 284.00" xmlns="http://www.w3.org/2000/svg" xmlns:xlink="http://www.w3.org/1999/xlink">
<g id="graph0" class="graph" transform="scale(1 1) rotate(0) translate(4 280)">
<title>dependencies</title>
<polygon fill="#ffffff" stroke="transparent" points="-4,4 -4,-280 500,-280 500,4 -4,4"/>
<text text-anchor="start" x="227.0091" y="-42.4" font-family="sans-serif" font-weight="bold" font-size="14.00" fill="#000000">Legend</text>
<polygon fill="#ffffb3" stroke="transparent" points="14,-10 14,-30 34,-30 34,-10 14,-10"/>
<text text-anchor="start" x="37.629" y="-15.4" font-family="sans-serif" font-size="14.00" fill="#000000"> &#160;Declarations</text>
<polygon fill="#8dd3c7" stroke="transparent" points="127,-10 127,-30 147,-30 147,-10 127,-10"/>
<text text-anchor="start" x="150.7251" y="-15.4" font-family="sans-serif" font-size="14.00" fill="#000000"> &#160;Module</text>
<polygon fill="#80b1d3" stroke="transparent" points="213,-10 213,-30 233,-30 233,-10 213,-10"/>
<text text-anchor="start" x="236.7812" y="-15.4" font-family="sans-serif" font-size="14.00" fill="#000000"> &#160;Bootstrap</text>
<polygon fill="#fdb462" stroke="transparent" points="310,-10 310,-30 330,-30 330,-10 310,-10"/>
<text text-anchor="start" x="333.6732" y="-15.4" font-family="sans-serif" font-size="14.00" fill="#000000"> &#160;Providers</text>
<polygon fill="#fb8072" stroke="transparent" points="406,-10 406,-30 426,-30 426,-10 406,-10"/>
<text text-anchor="start" x="429.7258" y="-15.4" font-family="sans-serif" font-size="14.00" fill="#000000"> &#160;Exports</text>
<g id="clust1" class="cluster">
<title>cluster_NgJointModule</title>
<polygon fill="none" stroke="#000000" stroke-dasharray="1,5" points="50.5,-70 50.5,-268 445.5,-268 445.5,-70 50.5,-70"/>
</g>
<g id="clust3" class="cluster">
<title>cluster_NgJointModule_imports</title>
<polygon fill="none" stroke="#000000" points="224.5,-78 224.5,-130 437.5,-130 437.5,-78 224.5,-78"/>
</g>
<g id="clust4" class="cluster">
<title>cluster_NgJointModule_exports</title>
<polygon fill="none" stroke="#000000" points="165.5,-208 165.5,-260 385.5,-260 385.5,-208 165.5,-208"/>
</g>
<g id="clust6" class="cluster">
<title>cluster_NgJointModule_providers</title>
<polygon fill="none" stroke="#000000" points="58.5,-78 58.5,-130 216.5,-130 216.5,-78 58.5,-78"/>
</g>
<!-- DiaModule -->
<g id="node1" class="node">
<title>DiaModule</title>
<polygon fill="#8dd3c7" stroke="#000000" points="429.262,-122 426.262,-126 405.262,-126 402.262,-122 349.738,-122 349.738,-86 429.262,-86 429.262,-122"/>
<text text-anchor="middle" x="389.5" y="-99.8" font-family="Times,serif" font-size="14.00" fill="#000000">DiaModule</text>
</g>
<!-- NgJointModule -->
<g id="node3" class="node">
<title>NgJointModule</title>
<polygon fill="#8dd3c7" stroke="#000000" points="334.3823,-187 331.3823,-191 310.3823,-191 307.3823,-187 230.6177,-187 230.6177,-151 334.3823,-151 334.3823,-187"/>
<text text-anchor="middle" x="282.5" y="-164.8" font-family="Times,serif" font-size="14.00" fill="#000000">NgJointModule</text>
</g>
<!-- DiaModule&#45;&gt;NgJointModule -->
<g id="edge1" class="edge">
<title>DiaModule&#45;&gt;NgJointModule</title>
<path fill="none" stroke="#000000" d="M363.375,-122.1061C363.375,-141.3391 363.375,-169 363.375,-169 363.375,-169 344.6338,-169 344.6338,-169"/>
<polygon fill="#000000" stroke="#000000" points="344.6338,-165.5001 334.6338,-169 344.6337,-172.5001 344.6338,-165.5001"/>
</g>
<!-- ShapesModule -->
<g id="node2" class="node">
<title>ShapesModule</title>
<polygon fill="#8dd3c7" stroke="#000000" points="332.2064,-122 329.2064,-126 308.2064,-126 305.2064,-122 232.7936,-122 232.7936,-86 332.2064,-86 332.2064,-122"/>
<text text-anchor="middle" x="282.5" y="-99.8" font-family="Times,serif" font-size="14.00" fill="#000000">ShapesModule</text>
</g>
<!-- ShapesModule&#45;&gt;NgJointModule -->
<g id="edge2" class="edge">
<title>ShapesModule&#45;&gt;NgJointModule</title>
<path fill="none" stroke="#000000" d="M282.5,-122.1061C282.5,-122.1061 282.5,-140.991 282.5,-140.991"/>
<polygon fill="#000000" stroke="#000000" points="279.0001,-140.9909 282.5,-150.991 286.0001,-140.991 279.0001,-140.9909"/>
</g>
<!-- DiaModule  -->
<g id="node4" class="node">
<title>DiaModule </title>
<polygon fill="#fb8072" stroke="#000000" points="377.262,-252 293.738,-252 293.738,-216 377.262,-216 377.262,-252"/>
<text text-anchor="middle" x="335.5" y="-229.8" font-family="Times,serif" font-size="14.00" fill="#000000">DiaModule </text>
</g>
<!-- NgJointModule&#45;&gt;DiaModule  -->
<g id="edge3" class="edge">
<title>NgJointModule&#45;&gt;DiaModule </title>
<path fill="none" stroke="#000000" stroke-dasharray="5,2" d="M314.1552,-187.1061C314.1552,-187.1061 314.1552,-205.991 314.1552,-205.991"/>
<polygon fill="#000000" stroke="#000000" points="310.6552,-205.9909 314.1552,-215.991 317.6552,-205.991 310.6552,-205.9909"/>
</g>
<!-- ShapesModule  -->
<g id="node5" class="node">
<title>ShapesModule </title>
<polygon fill="#fb8072" stroke="#000000" points="275.7066,-252 173.2934,-252 173.2934,-216 275.7066,-216 275.7066,-252"/>
<text text-anchor="middle" x="224.5" y="-229.8" font-family="Times,serif" font-size="14.00" fill="#000000">ShapesModule </text>
</g>
<!-- NgJointModule&#45;&gt;ShapesModule  -->
<g id="edge4" class="edge">
<title>NgJointModule&#45;&gt;ShapesModule </title>
<path fill="none" stroke="#000000" stroke-dasharray="5,2" d="M253.206,-187.1061C253.206,-187.1061 253.206,-205.991 253.206,-205.991"/>
<polygon fill="#000000" stroke="#000000" points="249.7061,-205.9909 253.206,-215.991 256.7061,-205.991 249.7061,-205.9909"/>
</g>
<!-- NgJointService -->
<g id="node6" class="node">
<title>NgJointService</title>
<ellipse fill="#fdb462" stroke="#000000" cx="137.5" cy="-104" rx="70.6432" ry="18"/>
<text text-anchor="middle" x="137.5" y="-99.8" font-family="Times,serif" font-size="14.00" fill="#000000">NgJointService</text>
</g>
<!-- NgJointService&#45;&gt;NgJointModule -->
<g id="edge5" class="edge">
<title>NgJointService&#45;&gt;NgJointModule</title>
<path fill="none" stroke="#000000" d="M190.6092,-115.922C190.6092,-134.687 190.6092,-169 190.6092,-169 190.6092,-169 220.3794,-169 220.3794,-169"/>
<polygon fill="#000000" stroke="#000000" points="220.3795,-172.5001 230.3794,-169 220.3794,-165.5001 220.3795,-172.5001"/>
</g>
</g>
</svg>
