<?xml version="1.0" encoding="UTF-8" standalone="no"?>
<!DOCTYPE svg PUBLIC "-//W3C//DTD SVG 1.1//EN"
 "http://www.w3.org/Graphics/SVG/1.1/DTD/svg11.dtd">
<!-- Generated by graphviz version 2.40.1 (20161225.0304)
 -->
<!-- Title: dependencies Pages: 1 -->
<svg width="504pt" height="284pt"
 viewBox="0.00 0.00 504.00 284.00" xmlns="http://www.w3.org/2000/svg" xmlns:xlink="http://www.w3.org/1999/xlink">
<g id="graph0" class="graph" transform="scale(1 1) rotate(0) translate(4 280)">
<title>dependencies</title>
<polygon fill="#ffffff" stroke="transparent" points="-4,4 -4,-280 500,-280 500,4 -4,4"/>
<text text-anchor="start" x="227.0091" y="-42.4" font-family="sans-serif" font-weight="bold" font-size="14.00" fill="#000000">Legend</text>
<polygon fill="#ffffb3" stroke="transparent" points="14,-10 14,-30 34,-30 34,-10 14,-10"/>
<text text-anchor="start" x="37.629" y="-15.4" font-family="sans-serif" font-size="14.00" fill="#000000"> &#160;Declarations</text>
<polygon fill="#8dd3c7" stroke="transparent" points="127,-10 127,-30 147,-30 147,-10 127,-10"/>
<text text-anchor="start" x="150.7251" y="-15.4" font-family="sans-serif" font-size="14.00" fill="#000000"> &#160;Module</text>
<polygon fill="#80b1d3" stroke="transparent" points="213,-10 213,-30 233,-30 233,-10 213,-10"/>
<text text-anchor="start" x="236.7812" y="-15.4" font-family="sans-serif" font-size="14.00" fill="#000000"> &#160;Bootstrap</text>
<polygon fill="#fdb462" stroke="transparent" points="310,-10 310,-30 330,-30 330,-10 310,-10"/>
<text text-anchor="start" x="333.6732" y="-15.4" font-family="sans-serif" font-size="14.00" fill="#000000"> &#160;Providers</text>
<polygon fill="#fb8072" stroke="transparent" points="406,-10 406,-30 426,-30 426,-10 406,-10"/>
<text text-anchor="start" x="429.7258" y="-15.4" font-family="sans-serif" font-size="14.00" fill="#000000"> &#160;Exports</text>
<g id="clust1" class="cluster">
<title>cluster_UmlAbstractModule</title>
<polygon fill="none" stroke="#000000" stroke-dasharray="1,5" points="53,-70 53,-268 443,-268 443,-70 53,-70"/>
</g>
<g id="clust2" class="cluster">
<title>cluster_UmlAbstractModule_declarations</title>
<polygon fill="none" stroke="#000000" points="265,-78 265,-130 435,-130 435,-78 265,-78"/>
</g>
<g id="clust5" class="cluster">
<title>cluster_UmlAbstractModule_exports</title>
<polygon fill="none" stroke="#000000" points="166,-208 166,-260 340,-260 340,-208 166,-208"/>
</g>
<g id="clust7" class="cluster">
<title>cluster_UmlAbstractModule_providers</title>
<polygon fill="none" stroke="#000000" points="61,-78 61,-130 257,-130 257,-78 61,-78"/>
</g>
<!-- UmlAbstractComponent -->
<g id="node1" class="node">
<title>UmlAbstractComponent</title>
<polygon fill="#ffffb3" stroke="#000000" points="426.6428,-122 273.3572,-122 273.3572,-86 426.6428,-86 426.6428,-122"/>
<text text-anchor="middle" x="350" y="-99.8" font-family="Times,serif" font-size="14.00" fill="#000000">UmlAbstractComponent</text>
</g>
<!-- UmlAbstractModule -->
<g id="node2" class="node">
<title>UmlAbstractModule</title>
<polygon fill="#8dd3c7" stroke="#000000" points="318.8599,-187 315.8599,-191 294.8599,-191 291.8599,-187 187.1401,-187 187.1401,-151 318.8599,-151 318.8599,-187"/>
<text text-anchor="middle" x="253" y="-164.8" font-family="Times,serif" font-size="14.00" fill="#000000">UmlAbstractModule</text>
</g>
<!-- UmlAbstractComponent&#45;&gt;UmlAbstractModule -->
<g id="edge1" class="edge">
<title>UmlAbstractComponent&#45;&gt;UmlAbstractModule</title>
<path fill="none" stroke="#000000" d="M296.0544,-122.1061C296.0544,-122.1061 296.0544,-140.991 296.0544,-140.991"/>
<polygon fill="#000000" stroke="#000000" points="292.5544,-140.9909 296.0544,-150.991 299.5544,-140.991 292.5544,-140.9909"/>
</g>
<!-- UmlAbstractComponent  -->
<g id="node3" class="node">
<title>UmlAbstractComponent </title>
<polygon fill="#fb8072" stroke="#000000" points="331.6425,-252 174.3575,-252 174.3575,-216 331.6425,-216 331.6425,-252"/>
<text text-anchor="middle" x="253" y="-229.8" font-family="Times,serif" font-size="14.00" fill="#000000">UmlAbstractComponent </text>
</g>
<!-- UmlAbstractModule&#45;&gt;UmlAbstractComponent  -->
<g id="edge2" class="edge">
<title>UmlAbstractModule&#45;&gt;UmlAbstractComponent </title>
<path fill="none" stroke="#000000" stroke-dasharray="5,2" d="M253,-187.1061C253,-187.1061 253,-205.991 253,-205.991"/>
<polygon fill="#000000" stroke="#000000" points="249.5001,-205.9909 253,-215.991 256.5001,-205.991 249.5001,-205.9909"/>
</g>
<!-- UmlAbstractService -->
<g id="node4" class="node">
<title>UmlAbstractService</title>
<ellipse fill="#fdb462" stroke="#000000" cx="159" cy="-104" rx="89.7402" ry="18"/>
<text text-anchor="middle" x="159" y="-99.8" font-family="Times,serif" font-size="14.00" fill="#000000">UmlAbstractService</text>
</g>
<!-- UmlAbstractService&#45;&gt;UmlAbstractModule -->
<g id="edge3" class="edge">
<title>UmlAbstractService&#45;&gt;UmlAbstractModule</title>
<path fill="none" stroke="#000000" d="M217.9701,-117.7848C217.9701,-117.7848 217.9701,-140.5475 217.9701,-140.5475"/>
<polygon fill="#000000" stroke="#000000" points="214.4702,-140.5474 217.9701,-150.5475 221.4702,-140.5475 214.4702,-140.5474"/>
</g>
</g>
</svg>
