<?xml version="1.0" encoding="UTF-8" standalone="no"?>
<!DOCTYPE svg PUBLIC "-//W3C//DTD SVG 1.1//EN"
 "http://www.w3.org/Graphics/SVG/1.1/DTD/svg11.dtd">
<!-- Generated by graphviz version 2.40.1 (20161225.0304)
 -->
<!-- Title: dependencies Pages: 1 -->
<svg width="504pt" height="284pt"
 viewBox="0.00 0.00 504.00 284.00" xmlns="http://www.w3.org/2000/svg" xmlns:xlink="http://www.w3.org/1999/xlink">
<g id="graph0" class="graph" transform="scale(1 1) rotate(0) translate(4 280)">
<title>dependencies</title>
<polygon fill="#ffffff" stroke="transparent" points="-4,4 -4,-280 500,-280 500,4 -4,4"/>
<text text-anchor="start" x="227.0091" y="-42.4" font-family="sans-serif" font-weight="bold" font-size="14.00" fill="#000000">Legend</text>
<polygon fill="#ffffb3" stroke="transparent" points="14,-10 14,-30 34,-30 34,-10 14,-10"/>
<text text-anchor="start" x="37.629" y="-15.4" font-family="sans-serif" font-size="14.00" fill="#000000"> &#160;Declarations</text>
<polygon fill="#8dd3c7" stroke="transparent" points="127,-10 127,-30 147,-30 147,-10 127,-10"/>
<text text-anchor="start" x="150.7251" y="-15.4" font-family="sans-serif" font-size="14.00" fill="#000000"> &#160;Module</text>
<polygon fill="#80b1d3" stroke="transparent" points="213,-10 213,-30 233,-30 233,-10 213,-10"/>
<text text-anchor="start" x="236.7812" y="-15.4" font-family="sans-serif" font-size="14.00" fill="#000000"> &#160;Bootstrap</text>
<polygon fill="#fdb462" stroke="transparent" points="310,-10 310,-30 330,-30 330,-10 310,-10"/>
<text text-anchor="start" x="333.6732" y="-15.4" font-family="sans-serif" font-size="14.00" fill="#000000"> &#160;Providers</text>
<polygon fill="#fb8072" stroke="transparent" points="406,-10 406,-30 426,-30 426,-10 406,-10"/>
<text text-anchor="start" x="429.7258" y="-15.4" font-family="sans-serif" font-size="14.00" fill="#000000"> &#160;Exports</text>
<g id="clust1" class="cluster">
<title>cluster_AngularElementModule</title>
<polygon fill="none" stroke="#000000" stroke-dasharray="1,5" points="29,-70 29,-268 467,-268 467,-70 29,-70"/>
</g>
<g id="clust2" class="cluster">
<title>cluster_AngularElementModule_declarations</title>
<polygon fill="none" stroke="#000000" points="269,-78 269,-130 459,-130 459,-78 269,-78"/>
</g>
<g id="clust5" class="cluster">
<title>cluster_AngularElementModule_exports</title>
<polygon fill="none" stroke="#000000" points="158,-208 158,-260 352,-260 352,-208 158,-208"/>
</g>
<g id="clust7" class="cluster">
<title>cluster_AngularElementModule_providers</title>
<polygon fill="none" stroke="#000000" points="37,-78 37,-130 261,-130 261,-78 37,-78"/>
</g>
<!-- AngularElementComponent -->
<g id="node1" class="node">
<title>AngularElementComponent</title>
<polygon fill="#ffffb3" stroke="#000000" points="450.8585,-122 277.1415,-122 277.1415,-86 450.8585,-86 450.8585,-122"/>
<text text-anchor="middle" x="364" y="-99.8" font-family="Times,serif" font-size="14.00" fill="#000000">AngularElementComponent</text>
</g>
<!-- AngularElementModule -->
<g id="node2" class="node">
<title>AngularElementModule</title>
<polygon fill="#8dd3c7" stroke="#000000" points="331.0758,-187 328.0758,-191 307.0758,-191 304.0758,-187 178.9242,-187 178.9242,-151 331.0758,-151 331.0758,-187"/>
<text text-anchor="middle" x="255" y="-164.8" font-family="Times,serif" font-size="14.00" fill="#000000">AngularElementModule</text>
</g>
<!-- AngularElementComponent&#45;&gt;AngularElementModule -->
<g id="edge1" class="edge">
<title>AngularElementComponent&#45;&gt;AngularElementModule</title>
<path fill="none" stroke="#000000" d="M304.0544,-122.1061C304.0544,-122.1061 304.0544,-140.991 304.0544,-140.991"/>
<polygon fill="#000000" stroke="#000000" points="300.5544,-140.9909 304.0544,-150.991 307.5544,-140.991 300.5544,-140.9909"/>
</g>
<!-- AngularElementComponent  -->
<g id="node3" class="node">
<title>AngularElementComponent </title>
<polygon fill="#fb8072" stroke="#000000" points="343.8588,-252 166.1412,-252 166.1412,-216 343.8588,-216 343.8588,-252"/>
<text text-anchor="middle" x="255" y="-229.8" font-family="Times,serif" font-size="14.00" fill="#000000">AngularElementComponent </text>
</g>
<!-- AngularElementModule&#45;&gt;AngularElementComponent  -->
<g id="edge2" class="edge">
<title>AngularElementModule&#45;&gt;AngularElementComponent </title>
<path fill="none" stroke="#000000" stroke-dasharray="5,2" d="M255,-187.1061C255,-187.1061 255,-205.991 255,-205.991"/>
<polygon fill="#000000" stroke="#000000" points="251.5001,-205.9909 255,-215.991 258.5001,-205.991 251.5001,-205.9909"/>
</g>
<!-- AngularElementService -->
<g id="node4" class="node">
<title>AngularElementService</title>
<ellipse fill="#fdb462" stroke="#000000" cx="149" cy="-104" rx="103.6296" ry="18"/>
<text text-anchor="middle" x="149" y="-99.8" font-family="Times,serif" font-size="14.00" fill="#000000">AngularElementService</text>
</g>
<!-- AngularElementService&#45;&gt;AngularElementModule -->
<g id="edge3" class="edge">
<title>AngularElementService&#45;&gt;AngularElementModule</title>
<path fill="none" stroke="#000000" d="M215.8884,-117.7848C215.8884,-117.7848 215.8884,-140.5475 215.8884,-140.5475"/>
<polygon fill="#000000" stroke="#000000" points="212.3885,-140.5474 215.8884,-150.5475 219.3885,-140.5475 212.3885,-140.5474"/>
</g>
</g>
</svg>
