<?xml version="1.0" encoding="UTF-8" standalone="no"?>
<!DOCTYPE svg PUBLIC "-//W3C//DTD SVG 1.1//EN"
 "http://www.w3.org/Graphics/SVG/1.1/DTD/svg11.dtd">
<!-- Generated by graphviz version 2.40.1 (20161225.0304)
 -->
<!-- Title: dependencies Pages: 1 -->
<svg width="510pt" height="284pt"
 viewBox="0.00 0.00 510.00 284.00" xmlns="http://www.w3.org/2000/svg" xmlns:xlink="http://www.w3.org/1999/xlink">
<g id="graph0" class="graph" transform="scale(1 1) rotate(0) translate(4 280)">
<title>dependencies</title>
<polygon fill="#ffffff" stroke="transparent" points="-4,4 -4,-280 506,-280 506,4 -4,4"/>
<text text-anchor="start" x="230.0091" y="-42.4" font-family="sans-serif" font-weight="bold" font-size="14.00" fill="#000000">Legend</text>
<polygon fill="#ffffb3" stroke="transparent" points="17,-10 17,-30 37,-30 37,-10 17,-10"/>
<text text-anchor="start" x="40.629" y="-15.4" font-family="sans-serif" font-size="14.00" fill="#000000"> &#160;Declarations</text>
<polygon fill="#8dd3c7" stroke="transparent" points="130,-10 130,-30 150,-30 150,-10 130,-10"/>
<text text-anchor="start" x="153.7251" y="-15.4" font-family="sans-serif" font-size="14.00" fill="#000000"> &#160;Module</text>
<polygon fill="#80b1d3" stroke="transparent" points="216,-10 216,-30 236,-30 236,-10 216,-10"/>
<text text-anchor="start" x="239.7812" y="-15.4" font-family="sans-serif" font-size="14.00" fill="#000000"> &#160;Bootstrap</text>
<polygon fill="#fdb462" stroke="transparent" points="313,-10 313,-30 333,-30 333,-10 313,-10"/>
<text text-anchor="start" x="336.6732" y="-15.4" font-family="sans-serif" font-size="14.00" fill="#000000"> &#160;Providers</text>
<polygon fill="#fb8072" stroke="transparent" points="409,-10 409,-30 429,-30 429,-10 409,-10"/>
<text text-anchor="start" x="432.7258" y="-15.4" font-family="sans-serif" font-size="14.00" fill="#000000"> &#160;Exports</text>
<g id="clust1" class="cluster">
<title>cluster_UmlImplementationModule</title>
<polygon fill="none" stroke="#000000" stroke-dasharray="1,5" points="8,-70 8,-268 494,-268 494,-70 8,-70"/>
</g>
<g id="clust2" class="cluster">
<title>cluster_UmlImplementationModule_declarations</title>
<polygon fill="none" stroke="#000000" points="276,-78 276,-130 486,-130 486,-78 276,-78"/>
</g>
<g id="clust5" class="cluster">
<title>cluster_UmlImplementationModule_exports</title>
<polygon fill="none" stroke="#000000" points="153,-208 153,-260 367,-260 367,-208 153,-208"/>
</g>
<g id="clust7" class="cluster">
<title>cluster_UmlImplementationModule_providers</title>
<polygon fill="none" stroke="#000000" points="16,-78 16,-130 268,-130 268,-78 16,-78"/>
</g>
<!-- UmlImplementationComponent -->
<g id="node1" class="node">
<title>UmlImplementationComponent</title>
<polygon fill="#ffffb3" stroke="#000000" points="478.3682,-122 283.6318,-122 283.6318,-86 478.3682,-86 478.3682,-122"/>
<text text-anchor="middle" x="381" y="-99.8" font-family="Times,serif" font-size="14.00" fill="#000000">UmlImplementationComponent</text>
</g>
<!-- UmlImplementationModule -->
<g id="node2" class="node">
<title>UmlImplementationModule</title>
<polygon fill="#8dd3c7" stroke="#000000" points="346.5856,-187 343.5856,-191 322.5856,-191 319.5856,-187 173.4144,-187 173.4144,-151 346.5856,-151 346.5856,-187"/>
<text text-anchor="middle" x="260" y="-164.8" font-family="Times,serif" font-size="14.00" fill="#000000">UmlImplementationModule</text>
</g>
<!-- UmlImplementationComponent&#45;&gt;UmlImplementationModule -->
<g id="edge1" class="edge">
<title>UmlImplementationComponent&#45;&gt;UmlImplementationModule</title>
<path fill="none" stroke="#000000" d="M315.0544,-122.1061C315.0544,-122.1061 315.0544,-140.991 315.0544,-140.991"/>
<polygon fill="#000000" stroke="#000000" points="311.5544,-140.9909 315.0544,-150.991 318.5544,-140.991 311.5544,-140.9909"/>
</g>
<!-- UmlImplementationComponent  -->
<g id="node3" class="node">
<title>UmlImplementationComponent </title>
<polygon fill="#fb8072" stroke="#000000" points="359.3685,-252 160.6315,-252 160.6315,-216 359.3685,-216 359.3685,-252"/>
<text text-anchor="middle" x="260" y="-229.8" font-family="Times,serif" font-size="14.00" fill="#000000">UmlImplementationComponent </text>
</g>
<!-- UmlImplementationModule&#45;&gt;UmlImplementationComponent  -->
<g id="edge2" class="edge">
<title>UmlImplementationModule&#45;&gt;UmlImplementationComponent </title>
<path fill="none" stroke="#000000" stroke-dasharray="5,2" d="M260,-187.1061C260,-187.1061 260,-205.991 260,-205.991"/>
<polygon fill="#000000" stroke="#000000" points="256.5001,-205.9909 260,-215.991 263.5001,-205.991 256.5001,-205.9909"/>
</g>
<!-- UmlImplementationService -->
<g id="node4" class="node">
<title>UmlImplementationService</title>
<ellipse fill="#fdb462" stroke="#000000" cx="142" cy="-104" rx="118.1139" ry="18"/>
<text text-anchor="middle" x="142" y="-99.8" font-family="Times,serif" font-size="14.00" fill="#000000">UmlImplementationService</text>
</g>
<!-- UmlImplementationService&#45;&gt;UmlImplementationModule -->
<g id="edge3" class="edge">
<title>UmlImplementationService&#45;&gt;UmlImplementationModule</title>
<path fill="none" stroke="#000000" d="M216.882,-118.104C216.882,-118.104 216.882,-140.7209 216.882,-140.7209"/>
<polygon fill="#000000" stroke="#000000" points="213.3821,-140.7209 216.882,-150.7209 220.3821,-140.7209 213.3821,-140.7209"/>
</g>
</g>
</svg>
