<?xml version="1.0" encoding="UTF-8" standalone="no"?>
<!DOCTYPE svg PUBLIC "-//W3C//DTD SVG 1.1//EN"
 "http://www.w3.org/Graphics/SVG/1.1/DTD/svg11.dtd">
<!-- Generated by graphviz version 2.40.1 (20161225.0304)
 -->
<!-- Title: dependencies Pages: 1 -->
<svg width="798pt" height="284pt"
 viewBox="0.00 0.00 798.00 284.00" xmlns="http://www.w3.org/2000/svg" xmlns:xlink="http://www.w3.org/1999/xlink">
<g id="graph0" class="graph" transform="scale(1 1) rotate(0) translate(4 280)">
<title>dependencies</title>
<polygon fill="#ffffff" stroke="transparent" points="-4,4 -4,-280 794,-280 794,4 -4,4"/>
<text text-anchor="start" x="374.0091" y="-42.4" font-family="sans-serif" font-weight="bold" font-size="14.00" fill="#000000">Legend</text>
<polygon fill="#ffffb3" stroke="transparent" points="161,-10 161,-30 181,-30 181,-10 161,-10"/>
<text text-anchor="start" x="184.629" y="-15.4" font-family="sans-serif" font-size="14.00" fill="#000000"> &#160;Declarations</text>
<polygon fill="#8dd3c7" stroke="transparent" points="274,-10 274,-30 294,-30 294,-10 274,-10"/>
<text text-anchor="start" x="297.7251" y="-15.4" font-family="sans-serif" font-size="14.00" fill="#000000"> &#160;Module</text>
<polygon fill="#80b1d3" stroke="transparent" points="360,-10 360,-30 380,-30 380,-10 360,-10"/>
<text text-anchor="start" x="383.7812" y="-15.4" font-family="sans-serif" font-size="14.00" fill="#000000"> &#160;Bootstrap</text>
<polygon fill="#fdb462" stroke="transparent" points="457,-10 457,-30 477,-30 477,-10 457,-10"/>
<text text-anchor="start" x="480.6732" y="-15.4" font-family="sans-serif" font-size="14.00" fill="#000000"> &#160;Providers</text>
<polygon fill="#fb8072" stroke="transparent" points="553,-10 553,-30 573,-30 573,-10 553,-10"/>
<text text-anchor="start" x="576.7258" y="-15.4" font-family="sans-serif" font-size="14.00" fill="#000000"> &#160;Exports</text>
<g id="clust1" class="cluster">
<title>cluster_ShapesStandardModule</title>
<polygon fill="none" stroke="#000000" stroke-dasharray="1,5" points="8,-70 8,-268 782,-268 782,-70 8,-70"/>
</g>
<g id="clust2" class="cluster">
<title>cluster_ShapesStandardModule_declarations</title>
<polygon fill="none" stroke="#000000" points="588,-78 588,-130 774,-130 774,-78 588,-78"/>
</g>
<g id="clust4" class="cluster">
<title>cluster_ShapesStandardModule_imports</title>
<polygon fill="none" stroke="#000000" points="244,-78 244,-130 580,-130 580,-78 244,-78"/>
</g>
<g id="clust5" class="cluster">
<title>cluster_ShapesStandardModule_exports</title>
<polygon fill="none" stroke="#000000" points="155,-208 155,-260 689,-260 689,-208 155,-208"/>
</g>
<g id="clust7" class="cluster">
<title>cluster_ShapesStandardModule_providers</title>
<polygon fill="none" stroke="#000000" points="16,-78 16,-130 236,-130 236,-78 16,-78"/>
</g>
<!-- ShapesStandardComponent -->
<g id="node1" class="node">
<title>ShapesStandardComponent</title>
<polygon fill="#ffffb3" stroke="#000000" points="766.252,-122 595.748,-122 595.748,-86 766.252,-86 766.252,-122"/>
<text text-anchor="middle" x="681" y="-99.8" font-family="Times,serif" font-size="14.00" fill="#000000">ShapesStandardComponent</text>
</g>
<!-- ShapesStandardModule -->
<g id="node2" class="node">
<title>ShapesStandardModule</title>
<polygon fill="#8dd3c7" stroke="#000000" points="493.4692,-187 490.4692,-191 469.4692,-191 466.4692,-187 344.5308,-187 344.5308,-151 493.4692,-151 493.4692,-187"/>
<text text-anchor="middle" x="419" y="-164.8" font-family="Times,serif" font-size="14.00" fill="#000000">ShapesStandardModule</text>
</g>
<!-- ShapesStandardComponent&#45;&gt;ShapesStandardModule -->
<g id="edge1" class="edge">
<title>ShapesStandardComponent&#45;&gt;ShapesStandardModule</title>
<path fill="none" stroke="#000000" d="M638.375,-122.0225C638.375,-139.3734 638.375,-163 638.375,-163 638.375,-163 503.5765,-163 503.5765,-163"/>
<polygon fill="#000000" stroke="#000000" points="503.5765,-159.5001 493.5765,-163 503.5764,-166.5001 503.5765,-159.5001"/>
</g>
<!-- ShapesStandardComponent  -->
<g id="node5" class="node">
<title>ShapesStandardComponent </title>
<polygon fill="#fb8072" stroke="#000000" points="681.252,-252 506.748,-252 506.748,-216 681.252,-216 681.252,-252"/>
<text text-anchor="middle" x="594" y="-229.8" font-family="Times,serif" font-size="14.00" fill="#000000">ShapesStandardComponent </text>
</g>
<!-- ShapesStandardModule&#45;&gt;ShapesStandardComponent  -->
<g id="edge4" class="edge">
<title>ShapesStandardModule&#45;&gt;ShapesStandardComponent </title>
<path fill="none" stroke="#000000" stroke-dasharray="5,2" d="M493.5236,-175C518.1496,-175 539.3761,-175 539.3761,-175 539.3761,-175 539.3761,-205.9775 539.3761,-205.9775"/>
<polygon fill="#000000" stroke="#000000" points="535.8761,-205.9774 539.3761,-215.9775 542.8761,-205.9775 535.8761,-205.9774"/>
</g>
<!-- StandardLinkModule  -->
<g id="node6" class="node">
<title>StandardLinkModule </title>
<polygon fill="#fb8072" stroke="#000000" points="488.7562,-252 349.2438,-252 349.2438,-216 488.7562,-216 488.7562,-252"/>
<text text-anchor="middle" x="419" y="-229.8" font-family="Times,serif" font-size="14.00" fill="#000000">StandardLinkModule </text>
</g>
<!-- ShapesStandardModule&#45;&gt;StandardLinkModule  -->
<g id="edge5" class="edge">
<title>ShapesStandardModule&#45;&gt;StandardLinkModule </title>
<path fill="none" stroke="#000000" stroke-dasharray="5,2" d="M419,-187.1061C419,-187.1061 419,-205.991 419,-205.991"/>
<polygon fill="#000000" stroke="#000000" points="415.5001,-205.9909 419,-215.991 422.5001,-205.991 415.5001,-205.9909"/>
</g>
<!-- StandardRectangleModule  -->
<g id="node7" class="node">
<title>StandardRectangleModule </title>
<polygon fill="#fb8072" stroke="#000000" points="331.2891,-252 162.7109,-252 162.7109,-216 331.2891,-216 331.2891,-252"/>
<text text-anchor="middle" x="247" y="-229.8" font-family="Times,serif" font-size="14.00" fill="#000000">StandardRectangleModule </text>
</g>
<!-- ShapesStandardModule&#45;&gt;StandardRectangleModule  -->
<g id="edge6" class="edge">
<title>ShapesStandardModule&#45;&gt;StandardRectangleModule </title>
<path fill="none" stroke="#000000" stroke-dasharray="5,2" d="M344.3156,-175C316.644,-175 291.875,-175 291.875,-175 291.875,-175 291.875,-205.9775 291.875,-205.9775"/>
<polygon fill="#000000" stroke="#000000" points="288.3751,-205.9774 291.875,-215.9775 295.3751,-205.9775 288.3751,-205.9774"/>
</g>
<!-- StandardLinkModule -->
<g id="node3" class="node">
<title>StandardLinkModule</title>
<polygon fill="#8dd3c7" stroke="#000000" points="571.7562,-122 568.7562,-126 547.7562,-126 544.7562,-122 436.2438,-122 436.2438,-86 571.7562,-86 571.7562,-122"/>
<text text-anchor="middle" x="504" y="-99.8" font-family="Times,serif" font-size="14.00" fill="#000000">StandardLinkModule</text>
</g>
<!-- StandardLinkModule&#45;&gt;ShapesStandardModule -->
<g id="edge2" class="edge">
<title>StandardLinkModule&#45;&gt;ShapesStandardModule</title>
<path fill="none" stroke="#000000" d="M464.8033,-122.1061C464.8033,-122.1061 464.8033,-140.991 464.8033,-140.991"/>
<polygon fill="#000000" stroke="#000000" points="461.3034,-140.9909 464.8033,-150.991 468.3034,-140.991 461.3034,-140.9909"/>
</g>
<!-- StandardRectangleModule -->
<g id="node4" class="node">
<title>StandardRectangleModule</title>
<polygon fill="#8dd3c7" stroke="#000000" points="417.7893,-122 414.7893,-126 393.7893,-126 390.7893,-122 252.2107,-122 252.2107,-86 417.7893,-86 417.7893,-122"/>
<text text-anchor="middle" x="335" y="-99.8" font-family="Times,serif" font-size="14.00" fill="#000000">StandardRectangleModule</text>
</g>
<!-- StandardRectangleModule&#45;&gt;ShapesStandardModule -->
<g id="edge3" class="edge">
<title>StandardRectangleModule&#45;&gt;ShapesStandardModule</title>
<path fill="none" stroke="#000000" d="M381.08,-122.1061C381.08,-122.1061 381.08,-140.991 381.08,-140.991"/>
<polygon fill="#000000" stroke="#000000" points="377.58,-140.9909 381.08,-150.991 384.58,-140.991 377.58,-140.9909"/>
</g>
<!-- ShapesStandardService -->
<g id="node8" class="node">
<title>ShapesStandardService</title>
<ellipse fill="#fdb462" stroke="#000000" cx="126" cy="-104" rx="101.8438" ry="18"/>
<text text-anchor="middle" x="126" y="-99.8" font-family="Times,serif" font-size="14.00" fill="#000000">ShapesStandardService</text>
</g>
<!-- ShapesStandardService&#45;&gt;ShapesStandardModule -->
<g id="edge7" class="edge">
<title>ShapesStandardService&#45;&gt;ShapesStandardModule</title>
<path fill="none" stroke="#000000" d="M195.1386,-117.388C195.1386,-134.7955 195.1386,-163 195.1386,-163 195.1386,-163 334.4574,-163 334.4574,-163"/>
<polygon fill="#000000" stroke="#000000" points="334.4574,-166.5001 344.4574,-163 334.4574,-159.5001 334.4574,-166.5001"/>
</g>
</g>
</svg>
