<?xml version="1.0" encoding="UTF-8" standalone="no"?>
<!DOCTYPE svg PUBLIC "-//W3C//DTD SVG 1.1//EN"
 "http://www.w3.org/Graphics/SVG/1.1/DTD/svg11.dtd">
<!-- Generated by graphviz version 2.40.1 (20161225.0304)
 -->
<!-- Title: dependencies Pages: 1 -->
<svg width="504pt" height="284pt"
 viewBox="0.00 0.00 504.00 284.00" xmlns="http://www.w3.org/2000/svg" xmlns:xlink="http://www.w3.org/1999/xlink">
<g id="graph0" class="graph" transform="scale(1 1) rotate(0) translate(4 280)">
<title>dependencies</title>
<polygon fill="#ffffff" stroke="transparent" points="-4,4 -4,-280 500,-280 500,4 -4,4"/>
<text text-anchor="start" x="227.0091" y="-42.4" font-family="sans-serif" font-weight="bold" font-size="14.00" fill="#000000">Legend</text>
<polygon fill="#ffffb3" stroke="transparent" points="14,-10 14,-30 34,-30 34,-10 14,-10"/>
<text text-anchor="start" x="37.629" y="-15.4" font-family="sans-serif" font-size="14.00" fill="#000000"> &#160;Declarations</text>
<polygon fill="#8dd3c7" stroke="transparent" points="127,-10 127,-30 147,-30 147,-10 127,-10"/>
<text text-anchor="start" x="150.7251" y="-15.4" font-family="sans-serif" font-size="14.00" fill="#000000"> &#160;Module</text>
<polygon fill="#80b1d3" stroke="transparent" points="213,-10 213,-30 233,-30 233,-10 213,-10"/>
<text text-anchor="start" x="236.7812" y="-15.4" font-family="sans-serif" font-size="14.00" fill="#000000"> &#160;Bootstrap</text>
<polygon fill="#fdb462" stroke="transparent" points="310,-10 310,-30 330,-30 330,-10 310,-10"/>
<text text-anchor="start" x="333.6732" y="-15.4" font-family="sans-serif" font-size="14.00" fill="#000000"> &#160;Providers</text>
<polygon fill="#fb8072" stroke="transparent" points="406,-10 406,-30 426,-30 426,-10 406,-10"/>
<text text-anchor="start" x="429.7258" y="-15.4" font-family="sans-serif" font-size="14.00" fill="#000000"> &#160;Exports</text>
<g id="clust1" class="cluster">
<title>cluster_StandardLinkModule</title>
<polygon fill="none" stroke="#000000" stroke-dasharray="1,5" points="48,-70 48,-268 448,-268 448,-70 48,-70"/>
</g>
<g id="clust2" class="cluster">
<title>cluster_StandardLinkModule_declarations</title>
<polygon fill="none" stroke="#000000" points="266,-78 266,-130 440,-130 440,-78 266,-78"/>
</g>
<g id="clust5" class="cluster">
<title>cluster_StandardLinkModule_exports</title>
<polygon fill="none" stroke="#000000" points="165,-208 165,-260 343,-260 343,-208 165,-208"/>
</g>
<g id="clust7" class="cluster">
<title>cluster_StandardLinkModule_providers</title>
<polygon fill="none" stroke="#000000" points="56,-78 56,-130 258,-130 258,-78 56,-78"/>
</g>
<!-- StandardLinkComponent -->
<g id="node1" class="node">
<title>StandardLinkComponent</title>
<polygon fill="#ffffb3" stroke="#000000" points="431.5393,-122 274.4607,-122 274.4607,-86 431.5393,-86 431.5393,-122"/>
<text text-anchor="middle" x="353" y="-99.8" font-family="Times,serif" font-size="14.00" fill="#000000">StandardLinkComponent</text>
</g>
<!-- StandardLinkModule -->
<g id="node2" class="node">
<title>StandardLinkModule</title>
<polygon fill="#8dd3c7" stroke="#000000" points="321.7562,-187 318.7562,-191 297.7562,-191 294.7562,-187 186.2438,-187 186.2438,-151 321.7562,-151 321.7562,-187"/>
<text text-anchor="middle" x="254" y="-164.8" font-family="Times,serif" font-size="14.00" fill="#000000">StandardLinkModule</text>
</g>
<!-- StandardLinkComponent&#45;&gt;StandardLinkModule -->
<g id="edge1" class="edge">
<title>StandardLinkComponent&#45;&gt;StandardLinkModule</title>
<path fill="none" stroke="#000000" d="M298.0544,-122.1061C298.0544,-122.1061 298.0544,-140.991 298.0544,-140.991"/>
<polygon fill="#000000" stroke="#000000" points="294.5544,-140.9909 298.0544,-150.991 301.5544,-140.991 294.5544,-140.9909"/>
</g>
<!-- StandardLinkComponent  -->
<g id="node3" class="node">
<title>StandardLinkComponent </title>
<polygon fill="#fb8072" stroke="#000000" points="334.5386,-252 173.4614,-252 173.4614,-216 334.5386,-216 334.5386,-252"/>
<text text-anchor="middle" x="254" y="-229.8" font-family="Times,serif" font-size="14.00" fill="#000000">StandardLinkComponent </text>
</g>
<!-- StandardLinkModule&#45;&gt;StandardLinkComponent  -->
<g id="edge2" class="edge">
<title>StandardLinkModule&#45;&gt;StandardLinkComponent </title>
<path fill="none" stroke="#000000" stroke-dasharray="5,2" d="M254,-187.1061C254,-187.1061 254,-205.991 254,-205.991"/>
<polygon fill="#000000" stroke="#000000" points="250.5001,-205.9909 254,-215.991 257.5001,-205.991 250.5001,-205.9909"/>
</g>
<!-- StandardLinkService -->
<g id="node4" class="node">
<title>StandardLinkService</title>
<ellipse fill="#fdb462" stroke="#000000" cx="157" cy="-104" rx="92.6151" ry="18"/>
<text text-anchor="middle" x="157" y="-99.8" font-family="Times,serif" font-size="14.00" fill="#000000">StandardLinkService</text>
</g>
<!-- StandardLinkService&#45;&gt;StandardLinkModule -->
<g id="edge3" class="edge">
<title>StandardLinkService&#45;&gt;StandardLinkModule</title>
<path fill="none" stroke="#000000" d="M217.8398,-117.7848C217.8398,-117.7848 217.8398,-140.5475 217.8398,-140.5475"/>
<polygon fill="#000000" stroke="#000000" points="214.3399,-140.5474 217.8398,-150.5475 221.3399,-140.5475 214.3399,-140.5474"/>
</g>
</g>
</svg>
