<?xml version="1.0" encoding="UTF-8" standalone="no"?>
<!DOCTYPE svg PUBLIC "-//W3C//DTD SVG 1.1//EN"
 "http://www.w3.org/Graphics/SVG/1.1/DTD/svg11.dtd">
<!-- Generated by graphviz version 2.40.1 (20161225.0304)
 -->
<!-- Title: dependencies Pages: 1 -->
<svg width="504pt" height="284pt"
 viewBox="0.00 0.00 504.00 284.00" xmlns="http://www.w3.org/2000/svg" xmlns:xlink="http://www.w3.org/1999/xlink">
<g id="graph0" class="graph" transform="scale(1 1) rotate(0) translate(4 280)">
<title>dependencies</title>
<polygon fill="#ffffff" stroke="transparent" points="-4,4 -4,-280 500,-280 500,4 -4,4"/>
<text text-anchor="start" x="227.0091" y="-42.4" font-family="sans-serif" font-weight="bold" font-size="14.00" fill="#000000">Legend</text>
<polygon fill="#ffffb3" stroke="transparent" points="14,-10 14,-30 34,-30 34,-10 14,-10"/>
<text text-anchor="start" x="37.629" y="-15.4" font-family="sans-serif" font-size="14.00" fill="#000000"> &#160;Declarations</text>
<polygon fill="#8dd3c7" stroke="transparent" points="127,-10 127,-30 147,-30 147,-10 127,-10"/>
<text text-anchor="start" x="150.7251" y="-15.4" font-family="sans-serif" font-size="14.00" fill="#000000"> &#160;Module</text>
<polygon fill="#80b1d3" stroke="transparent" points="213,-10 213,-30 233,-30 233,-10 213,-10"/>
<text text-anchor="start" x="236.7812" y="-15.4" font-family="sans-serif" font-size="14.00" fill="#000000"> &#160;Bootstrap</text>
<polygon fill="#fdb462" stroke="transparent" points="310,-10 310,-30 330,-30 330,-10 310,-10"/>
<text text-anchor="start" x="333.6732" y="-15.4" font-family="sans-serif" font-size="14.00" fill="#000000"> &#160;Providers</text>
<polygon fill="#fb8072" stroke="transparent" points="406,-10 406,-30 426,-30 426,-10 406,-10"/>
<text text-anchor="start" x="429.7258" y="-15.4" font-family="sans-serif" font-size="14.00" fill="#000000"> &#160;Exports</text>
<g id="clust1" class="cluster">
<title>cluster_UmlInterfaceModule</title>
<polygon fill="none" stroke="#000000" stroke-dasharray="1,5" points="51,-70 51,-268 445,-268 445,-70 51,-70"/>
</g>
<g id="clust2" class="cluster">
<title>cluster_UmlInterfaceModule_declarations</title>
<polygon fill="none" stroke="#000000" points="265,-78 265,-130 437,-130 437,-78 265,-78"/>
</g>
<g id="clust5" class="cluster">
<title>cluster_UmlInterfaceModule_exports</title>
<polygon fill="none" stroke="#000000" points="165,-208 165,-260 341,-260 341,-208 165,-208"/>
</g>
<g id="clust7" class="cluster">
<title>cluster_UmlInterfaceModule_providers</title>
<polygon fill="none" stroke="#000000" points="59,-78 59,-130 257,-130 257,-78 59,-78"/>
</g>
<!-- UmlInterfaceComponent -->
<g id="node1" class="node">
<title>UmlInterfaceComponent</title>
<polygon fill="#ffffb3" stroke="#000000" points="428.951,-122 273.049,-122 273.049,-86 428.951,-86 428.951,-122"/>
<text text-anchor="middle" x="351" y="-99.8" font-family="Times,serif" font-size="14.00" fill="#000000">UmlInterfaceComponent</text>
</g>
<!-- UmlInterfaceModule -->
<g id="node2" class="node">
<title>UmlInterfaceModule</title>
<polygon fill="#8dd3c7" stroke="#000000" points="320.1685,-187 317.1685,-191 296.1685,-191 293.1685,-187 185.8315,-187 185.8315,-151 320.1685,-151 320.1685,-187"/>
<text text-anchor="middle" x="253" y="-164.8" font-family="Times,serif" font-size="14.00" fill="#000000">UmlInterfaceModule</text>
</g>
<!-- UmlInterfaceComponent&#45;&gt;UmlInterfaceModule -->
<g id="edge1" class="edge">
<title>UmlInterfaceComponent&#45;&gt;UmlInterfaceModule</title>
<path fill="none" stroke="#000000" d="M296.5544,-122.1061C296.5544,-122.1061 296.5544,-140.991 296.5544,-140.991"/>
<polygon fill="#000000" stroke="#000000" points="293.0544,-140.9909 296.5544,-150.991 300.0544,-140.991 293.0544,-140.9909"/>
</g>
<!-- UmlInterfaceComponent  -->
<g id="node3" class="node">
<title>UmlInterfaceComponent </title>
<polygon fill="#fb8072" stroke="#000000" points="332.9516,-252 173.0484,-252 173.0484,-216 332.9516,-216 332.9516,-252"/>
<text text-anchor="middle" x="253" y="-229.8" font-family="Times,serif" font-size="14.00" fill="#000000">UmlInterfaceComponent </text>
</g>
<!-- UmlInterfaceModule&#45;&gt;UmlInterfaceComponent  -->
<g id="edge2" class="edge">
<title>UmlInterfaceModule&#45;&gt;UmlInterfaceComponent </title>
<path fill="none" stroke="#000000" stroke-dasharray="5,2" d="M253,-187.1061C253,-187.1061 253,-205.991 253,-205.991"/>
<polygon fill="#000000" stroke="#000000" points="249.5001,-205.9909 253,-215.991 256.5001,-205.991 249.5001,-205.9909"/>
</g>
<!-- UmlInterfaceService -->
<g id="node4" class="node">
<title>UmlInterfaceService</title>
<ellipse fill="#fdb462" stroke="#000000" cx="158" cy="-104" rx="91.4249" ry="18"/>
<text text-anchor="middle" x="158" y="-99.8" font-family="Times,serif" font-size="14.00" fill="#000000">UmlInterfaceService</text>
</g>
<!-- UmlInterfaceService&#45;&gt;UmlInterfaceModule -->
<g id="edge3" class="edge">
<title>UmlInterfaceService&#45;&gt;UmlInterfaceModule</title>
<path fill="none" stroke="#000000" d="M217.6891,-117.7848C217.6891,-117.7848 217.6891,-140.5475 217.6891,-140.5475"/>
<polygon fill="#000000" stroke="#000000" points="214.1892,-140.5474 217.6891,-150.5475 221.1892,-140.5475 214.1892,-140.5474"/>
</g>
</g>
</svg>
