<?xml version="1.0" encoding="UTF-8" standalone="no"?>
<!DOCTYPE svg PUBLIC "-//W3C//DTD SVG 1.1//EN"
 "http://www.w3.org/Graphics/SVG/1.1/DTD/svg11.dtd">
<!-- Generated by graphviz version 2.40.1 (20161225.0304)
 -->
<!-- Title: dependencies Pages: 1 -->
<svg width="504pt" height="284pt"
 viewBox="0.00 0.00 504.00 284.00" xmlns="http://www.w3.org/2000/svg" xmlns:xlink="http://www.w3.org/1999/xlink">
<g id="graph0" class="graph" transform="scale(1 1) rotate(0) translate(4 280)">
<title>dependencies</title>
<polygon fill="#ffffff" stroke="transparent" points="-4,4 -4,-280 500,-280 500,4 -4,4"/>
<text text-anchor="start" x="227.0091" y="-42.4" font-family="sans-serif" font-weight="bold" font-size="14.00" fill="#000000">Legend</text>
<polygon fill="#ffffb3" stroke="transparent" points="14,-10 14,-30 34,-30 34,-10 14,-10"/>
<text text-anchor="start" x="37.629" y="-15.4" font-family="sans-serif" font-size="14.00" fill="#000000"> &#160;Declarations</text>
<polygon fill="#8dd3c7" stroke="transparent" points="127,-10 127,-30 147,-30 147,-10 127,-10"/>
<text text-anchor="start" x="150.7251" y="-15.4" font-family="sans-serif" font-size="14.00" fill="#000000"> &#160;Module</text>
<polygon fill="#80b1d3" stroke="transparent" points="213,-10 213,-30 233,-30 233,-10 213,-10"/>
<text text-anchor="start" x="236.7812" y="-15.4" font-family="sans-serif" font-size="14.00" fill="#000000"> &#160;Bootstrap</text>
<polygon fill="#fdb462" stroke="transparent" points="310,-10 310,-30 330,-30 330,-10 310,-10"/>
<text text-anchor="start" x="333.6732" y="-15.4" font-family="sans-serif" font-size="14.00" fill="#000000"> &#160;Providers</text>
<polygon fill="#fb8072" stroke="transparent" points="406,-10 406,-30 426,-30 426,-10 406,-10"/>
<text text-anchor="start" x="429.7258" y="-15.4" font-family="sans-serif" font-size="14.00" fill="#000000"> &#160;Exports</text>
<g id="clust1" class="cluster">
<title>cluster_StandardRectangleModule</title>
<polygon fill="none" stroke="#000000" stroke-dasharray="1,5" points="13,-70 13,-268 483,-268 483,-70 13,-70"/>
</g>
<g id="clust2" class="cluster">
<title>cluster_StandardRectangleModule_declarations</title>
<polygon fill="none" stroke="#000000" points="271,-78 271,-130 475,-130 475,-78 271,-78"/>
</g>
<g id="clust5" class="cluster">
<title>cluster_StandardRectangleModule_exports</title>
<polygon fill="none" stroke="#000000" points="154,-208 154,-260 360,-260 360,-208 154,-208"/>
</g>
<g id="clust7" class="cluster">
<title>cluster_StandardRectangleModule_providers</title>
<polygon fill="none" stroke="#000000" points="21,-78 21,-130 263,-130 263,-78 21,-78"/>
</g>
<!-- StandardRectangleComponent -->
<g id="node1" class="node">
<title>StandardRectangleComponent</title>
<polygon fill="#ffffb3" stroke="#000000" points="466.5716,-122 279.4284,-122 279.4284,-86 466.5716,-86 466.5716,-122"/>
<text text-anchor="middle" x="373" y="-99.8" font-family="Times,serif" font-size="14.00" fill="#000000">StandardRectangleComponent</text>
</g>
<!-- StandardRectangleModule -->
<g id="node2" class="node">
<title>StandardRectangleModule</title>
<polygon fill="#8dd3c7" stroke="#000000" points="339.7893,-187 336.7893,-191 315.7893,-191 312.7893,-187 174.2107,-187 174.2107,-151 339.7893,-151 339.7893,-187"/>
<text text-anchor="middle" x="257" y="-164.8" font-family="Times,serif" font-size="14.00" fill="#000000">StandardRectangleModule</text>
</g>
<!-- StandardRectangleComponent&#45;&gt;StandardRectangleModule -->
<g id="edge1" class="edge">
<title>StandardRectangleComponent&#45;&gt;StandardRectangleModule</title>
<path fill="none" stroke="#000000" d="M309.5544,-122.1061C309.5544,-122.1061 309.5544,-140.991 309.5544,-140.991"/>
<polygon fill="#000000" stroke="#000000" points="306.0544,-140.9909 309.5544,-150.991 313.0544,-140.991 306.0544,-140.9909"/>
</g>
<!-- StandardRectangleComponent  -->
<g id="node3" class="node">
<title>StandardRectangleComponent </title>
<polygon fill="#fb8072" stroke="#000000" points="352.0721,-252 161.9279,-252 161.9279,-216 352.0721,-216 352.0721,-252"/>
<text text-anchor="middle" x="257" y="-229.8" font-family="Times,serif" font-size="14.00" fill="#000000">StandardRectangleComponent </text>
</g>
<!-- StandardRectangleModule&#45;&gt;StandardRectangleComponent  -->
<g id="edge2" class="edge">
<title>StandardRectangleModule&#45;&gt;StandardRectangleComponent </title>
<path fill="none" stroke="#000000" stroke-dasharray="5,2" d="M257,-187.1061C257,-187.1061 257,-205.991 257,-205.991"/>
<polygon fill="#000000" stroke="#000000" points="253.5001,-205.9909 257,-215.991 260.5001,-205.991 253.5001,-205.9909"/>
</g>
<!-- StandardRectangleService -->
<g id="node4" class="node">
<title>StandardRectangleService</title>
<ellipse fill="#fdb462" stroke="#000000" cx="142" cy="-104" rx="112.8578" ry="18"/>
<text text-anchor="middle" x="142" y="-99.8" font-family="Times,serif" font-size="14.00" fill="#000000">StandardRectangleService</text>
</g>
<!-- StandardRectangleService&#45;&gt;StandardRectangleModule -->
<g id="edge3" class="edge">
<title>StandardRectangleService&#45;&gt;StandardRectangleModule</title>
<path fill="none" stroke="#000000" d="M214.6422,-117.7848C214.6422,-117.7848 214.6422,-140.5475 214.6422,-140.5475"/>
<polygon fill="#000000" stroke="#000000" points="211.1423,-140.5474 214.6422,-150.5475 218.1423,-140.5475 211.1423,-140.5474"/>
</g>
</g>
</svg>
