<?xml version="1.0" encoding="UTF-8" standalone="no"?>
<!DOCTYPE svg PUBLIC "-//W3C//DTD SVG 1.1//EN"
 "http://www.w3.org/Graphics/SVG/1.1/DTD/svg11.dtd">
<!-- Generated by graphviz version 2.40.1 (20161225.0304)
 -->
<!-- Title: dependencies Pages: 1 -->
<svg width="504pt" height="284pt"
 viewBox="0.00 0.00 504.00 284.00" xmlns="http://www.w3.org/2000/svg" xmlns:xlink="http://www.w3.org/1999/xlink">
<g id="graph0" class="graph" transform="scale(1 1) rotate(0) translate(4 280)">
<title>dependencies</title>
<polygon fill="#ffffff" stroke="transparent" points="-4,4 -4,-280 500,-280 500,4 -4,4"/>
<text text-anchor="start" x="227.0091" y="-42.4" font-family="sans-serif" font-weight="bold" font-size="14.00" fill="#000000">Legend</text>
<polygon fill="#ffffb3" stroke="transparent" points="14,-10 14,-30 34,-30 34,-10 14,-10"/>
<text text-anchor="start" x="37.629" y="-15.4" font-family="sans-serif" font-size="14.00" fill="#000000"> &#160;Declarations</text>
<polygon fill="#8dd3c7" stroke="transparent" points="127,-10 127,-30 147,-30 147,-10 127,-10"/>
<text text-anchor="start" x="150.7251" y="-15.4" font-family="sans-serif" font-size="14.00" fill="#000000"> &#160;Module</text>
<polygon fill="#80b1d3" stroke="transparent" points="213,-10 213,-30 233,-30 233,-10 213,-10"/>
<text text-anchor="start" x="236.7812" y="-15.4" font-family="sans-serif" font-size="14.00" fill="#000000"> &#160;Bootstrap</text>
<polygon fill="#fdb462" stroke="transparent" points="310,-10 310,-30 330,-30 330,-10 310,-10"/>
<text text-anchor="start" x="333.6732" y="-15.4" font-family="sans-serif" font-size="14.00" fill="#000000"> &#160;Providers</text>
<polygon fill="#fb8072" stroke="transparent" points="406,-10 406,-30 426,-30 426,-10 406,-10"/>
<text text-anchor="start" x="429.7258" y="-15.4" font-family="sans-serif" font-size="14.00" fill="#000000"> &#160;Exports</text>
<g id="clust1" class="cluster">
<title>cluster_UmlAggregationModule</title>
<polygon fill="none" stroke="#000000" stroke-dasharray="1,5" points="27,-70 27,-268 469,-268 469,-70 27,-70"/>
</g>
<g id="clust2" class="cluster">
<title>cluster_UmlAggregationModule_declarations</title>
<polygon fill="none" stroke="#000000" points="269,-78 269,-130 461,-130 461,-78 269,-78"/>
</g>
<g id="clust5" class="cluster">
<title>cluster_UmlAggregationModule_exports</title>
<polygon fill="none" stroke="#000000" points="157,-208 157,-260 353,-260 353,-208 157,-208"/>
</g>
<g id="clust7" class="cluster">
<title>cluster_UmlAggregationModule_providers</title>
<polygon fill="none" stroke="#000000" points="35,-78 35,-130 261,-130 261,-78 35,-78"/>
</g>
<!-- UmlAggregationComponent -->
<g id="node1" class="node">
<title>UmlAggregationComponent</title>
<polygon fill="#ffffb3" stroke="#000000" points="453.1979,-122 276.8021,-122 276.8021,-86 453.1979,-86 453.1979,-122"/>
<text text-anchor="middle" x="365" y="-99.8" font-family="Times,serif" font-size="14.00" fill="#000000">UmlAggregationComponent</text>
</g>
<!-- UmlAggregationModule -->
<g id="node2" class="node">
<title>UmlAggregationModule</title>
<polygon fill="#8dd3c7" stroke="#000000" points="332.4158,-187 329.4158,-191 308.4158,-191 305.4158,-187 177.5842,-187 177.5842,-151 332.4158,-151 332.4158,-187"/>
<text text-anchor="middle" x="255" y="-164.8" font-family="Times,serif" font-size="14.00" fill="#000000">UmlAggregationModule</text>
</g>
<!-- UmlAggregationComponent&#45;&gt;UmlAggregationModule -->
<g id="edge1" class="edge">
<title>UmlAggregationComponent&#45;&gt;UmlAggregationModule</title>
<path fill="none" stroke="#000000" d="M304.5544,-122.1061C304.5544,-122.1061 304.5544,-140.991 304.5544,-140.991"/>
<polygon fill="#000000" stroke="#000000" points="301.0544,-140.9909 304.5544,-150.991 308.0544,-140.991 301.0544,-140.9909"/>
</g>
<!-- UmlAggregationComponent  -->
<g id="node3" class="node">
<title>UmlAggregationComponent </title>
<polygon fill="#fb8072" stroke="#000000" points="344.6981,-252 165.3019,-252 165.3019,-216 344.6981,-216 344.6981,-252"/>
<text text-anchor="middle" x="255" y="-229.8" font-family="Times,serif" font-size="14.00" fill="#000000">UmlAggregationComponent </text>
</g>
<!-- UmlAggregationModule&#45;&gt;UmlAggregationComponent  -->
<g id="edge2" class="edge">
<title>UmlAggregationModule&#45;&gt;UmlAggregationComponent </title>
<path fill="none" stroke="#000000" stroke-dasharray="5,2" d="M255,-187.1061C255,-187.1061 255,-205.991 255,-205.991"/>
<polygon fill="#000000" stroke="#000000" points="251.5001,-205.9909 255,-215.991 258.5001,-205.991 251.5001,-205.9909"/>
</g>
<!-- UmlAggregationService -->
<g id="node4" class="node">
<title>UmlAggregationService</title>
<ellipse fill="#fdb462" stroke="#000000" cx="148" cy="-104" rx="105.3567" ry="18"/>
<text text-anchor="middle" x="148" y="-99.8" font-family="Times,serif" font-size="14.00" fill="#000000">UmlAggregationService</text>
</g>
<!-- UmlAggregationService&#45;&gt;UmlAggregationModule -->
<g id="edge3" class="edge">
<title>UmlAggregationService&#45;&gt;UmlAggregationModule</title>
<path fill="none" stroke="#000000" d="M215.6104,-118.104C215.6104,-118.104 215.6104,-140.7209 215.6104,-140.7209"/>
<polygon fill="#000000" stroke="#000000" points="212.1105,-140.7209 215.6104,-150.7209 219.1105,-140.7209 212.1105,-140.7209"/>
</g>
</g>
</svg>
