<?xml version="1.0" encoding="UTF-8" standalone="no"?>
<!DOCTYPE svg PUBLIC "-//W3C//DTD SVG 1.1//EN"
 "http://www.w3.org/Graphics/SVG/1.1/DTD/svg11.dtd">
<!-- Generated by graphviz version 2.40.1 (20161225.0304)
 -->
<!-- Title: dependencies Pages: 1 -->
<svg width="620pt" height="284pt"
 viewBox="0.00 0.00 620.00 284.00" xmlns="http://www.w3.org/2000/svg" xmlns:xlink="http://www.w3.org/1999/xlink">
<g id="graph0" class="graph" transform="scale(1 1) rotate(0) translate(4 280)">
<title>dependencies</title>
<polygon fill="#ffffff" stroke="transparent" points="-4,4 -4,-280 616,-280 616,4 -4,4"/>
<text text-anchor="start" x="285.0091" y="-42.4" font-family="sans-serif" font-weight="bold" font-size="14.00" fill="#000000">Legend</text>
<polygon fill="#ffffb3" stroke="transparent" points="72,-10 72,-30 92,-30 92,-10 72,-10"/>
<text text-anchor="start" x="95.629" y="-15.4" font-family="sans-serif" font-size="14.00" fill="#000000"> &#160;Declarations</text>
<polygon fill="#8dd3c7" stroke="transparent" points="185,-10 185,-30 205,-30 205,-10 185,-10"/>
<text text-anchor="start" x="208.7251" y="-15.4" font-family="sans-serif" font-size="14.00" fill="#000000"> &#160;Module</text>
<polygon fill="#80b1d3" stroke="transparent" points="271,-10 271,-30 291,-30 291,-10 271,-10"/>
<text text-anchor="start" x="294.7812" y="-15.4" font-family="sans-serif" font-size="14.00" fill="#000000"> &#160;Bootstrap</text>
<polygon fill="#fdb462" stroke="transparent" points="368,-10 368,-30 388,-30 388,-10 368,-10"/>
<text text-anchor="start" x="391.6732" y="-15.4" font-family="sans-serif" font-size="14.00" fill="#000000"> &#160;Providers</text>
<polygon fill="#fb8072" stroke="transparent" points="464,-10 464,-30 484,-30 484,-10 464,-10"/>
<text text-anchor="start" x="487.7258" y="-15.4" font-family="sans-serif" font-size="14.00" fill="#000000"> &#160;Exports</text>
<g id="clust1" class="cluster">
<title>cluster_ShapesAngularModule</title>
<polygon fill="none" stroke="#000000" stroke-dasharray="1,5" points="8,-70 8,-268 604,-268 604,-70 8,-70"/>
</g>
<g id="clust2" class="cluster">
<title>cluster_ShapesAngularModule_declarations</title>
<polygon fill="none" stroke="#000000" points="414,-78 414,-130 596,-130 596,-78 414,-78"/>
</g>
<g id="clust4" class="cluster">
<title>cluster_ShapesAngularModule_imports</title>
<polygon fill="none" stroke="#000000" points="238,-78 238,-130 406,-130 406,-78 238,-78"/>
</g>
<g id="clust5" class="cluster">
<title>cluster_ShapesAngularModule_exports</title>
<polygon fill="none" stroke="#000000" points="139,-208 139,-260 499,-260 499,-208 139,-208"/>
</g>
<g id="clust7" class="cluster">
<title>cluster_ShapesAngularModule_providers</title>
<polygon fill="none" stroke="#000000" points="16,-78 16,-130 230,-130 230,-78 16,-78"/>
</g>
<!-- ShapesAngularComponent -->
<g id="node1" class="node">
<title>ShapesAngularComponent</title>
<polygon fill="#ffffb3" stroke="#000000" points="588.3613,-122 421.6387,-122 421.6387,-86 588.3613,-86 588.3613,-122"/>
<text text-anchor="middle" x="505" y="-99.8" font-family="Times,serif" font-size="14.00" fill="#000000">ShapesAngularComponent</text>
</g>
<!-- ShapesAngularModule -->
<g id="node2" class="node">
<title>ShapesAngularModule</title>
<polygon fill="#8dd3c7" stroke="#000000" points="394.5786,-187 391.5786,-191 370.5786,-191 367.5786,-187 249.4214,-187 249.4214,-151 394.5786,-151 394.5786,-187"/>
<text text-anchor="middle" x="322" y="-164.8" font-family="Times,serif" font-size="14.00" fill="#000000">ShapesAngularModule</text>
</g>
<!-- ShapesAngularComponent&#45;&gt;ShapesAngularModule -->
<g id="edge1" class="edge">
<title>ShapesAngularComponent&#45;&gt;ShapesAngularModule</title>
<path fill="none" stroke="#000000" d="M456.1786,-122.1061C456.1786,-141.3391 456.1786,-169 456.1786,-169 456.1786,-169 404.5873,-169 404.5873,-169"/>
<polygon fill="#000000" stroke="#000000" points="404.5873,-165.5001 394.5873,-169 404.5872,-172.5001 404.5873,-165.5001"/>
</g>
<!-- AngularElementModule  -->
<g id="node4" class="node">
<title>AngularElementModule </title>
<polygon fill="#fb8072" stroke="#000000" points="490.5764,-252 335.4236,-252 335.4236,-216 490.5764,-216 490.5764,-252"/>
<text text-anchor="middle" x="413" y="-229.8" font-family="Times,serif" font-size="14.00" fill="#000000">AngularElementModule </text>
</g>
<!-- ShapesAngularModule&#45;&gt;AngularElementModule  -->
<g id="edge3" class="edge">
<title>ShapesAngularModule&#45;&gt;AngularElementModule </title>
<path fill="none" stroke="#000000" stroke-dasharray="5,2" d="M364.8757,-187.1061C364.8757,-187.1061 364.8757,-205.991 364.8757,-205.991"/>
<polygon fill="#000000" stroke="#000000" points="361.3758,-205.9909 364.8757,-215.991 368.3758,-205.991 361.3758,-205.9909"/>
</g>
<!-- ShapesAngularComponent  -->
<g id="node5" class="node">
<title>ShapesAngularComponent </title>
<polygon fill="#fb8072" stroke="#000000" points="317.3616,-252 146.6384,-252 146.6384,-216 317.3616,-216 317.3616,-252"/>
<text text-anchor="middle" x="232" y="-229.8" font-family="Times,serif" font-size="14.00" fill="#000000">ShapesAngularComponent </text>
</g>
<!-- ShapesAngularModule&#45;&gt;ShapesAngularComponent  -->
<g id="edge4" class="edge">
<title>ShapesAngularModule&#45;&gt;ShapesAngularComponent </title>
<path fill="none" stroke="#000000" stroke-dasharray="5,2" d="M283.3207,-187.1061C283.3207,-187.1061 283.3207,-205.991 283.3207,-205.991"/>
<polygon fill="#000000" stroke="#000000" points="279.8207,-205.9909 283.3207,-215.991 286.8207,-205.991 279.8207,-205.9909"/>
</g>
<!-- AngularElementModule -->
<g id="node3" class="node">
<title>AngularElementModule</title>
<polygon fill="#8dd3c7" stroke="#000000" points="398.0758,-122 395.0758,-126 374.0758,-126 371.0758,-122 245.9242,-122 245.9242,-86 398.0758,-86 398.0758,-122"/>
<text text-anchor="middle" x="322" y="-99.8" font-family="Times,serif" font-size="14.00" fill="#000000">AngularElementModule</text>
</g>
<!-- AngularElementModule&#45;&gt;ShapesAngularModule -->
<g id="edge2" class="edge">
<title>AngularElementModule&#45;&gt;ShapesAngularModule</title>
<path fill="none" stroke="#000000" d="M322,-122.1061C322,-122.1061 322,-140.991 322,-140.991"/>
<polygon fill="#000000" stroke="#000000" points="318.5001,-140.9909 322,-150.991 325.5001,-140.991 318.5001,-140.9909"/>
</g>
<!-- ShapesAngularService -->
<g id="node6" class="node">
<title>ShapesAngularService</title>
<ellipse fill="#fdb462" stroke="#000000" cx="123" cy="-104" rx="98.9762" ry="18"/>
<text text-anchor="middle" x="123" y="-99.8" font-family="Times,serif" font-size="14.00" fill="#000000">ShapesAngularService</text>
</g>
<!-- ShapesAngularService&#45;&gt;ShapesAngularModule -->
<g id="edge5" class="edge">
<title>ShapesAngularService&#45;&gt;ShapesAngularModule</title>
<path fill="none" stroke="#000000" d="M184.4037,-118.4256C184.4037,-137.5751 184.4037,-169 184.4037,-169 184.4037,-169 239.1728,-169 239.1728,-169"/>
<polygon fill="#000000" stroke="#000000" points="239.1728,-172.5001 249.1728,-169 239.1727,-165.5001 239.1728,-172.5001"/>
</g>
</g>
</svg>
