<?xml version="1.0" encoding="UTF-8" standalone="no"?>
<!DOCTYPE svg PUBLIC "-//W3C//DTD SVG 1.1//EN"
 "http://www.w3.org/Graphics/SVG/1.1/DTD/svg11.dtd">
<!-- Generated by graphviz version 2.40.1 (20161225.0304)
 -->
<!-- Title: dependencies Pages: 1 -->
<svg width="694pt" height="284pt"
 viewBox="0.00 0.00 694.00 284.00" xmlns="http://www.w3.org/2000/svg" xmlns:xlink="http://www.w3.org/1999/xlink">
<g id="graph0" class="graph" transform="scale(1 1) rotate(0) translate(4 280)">
<title>dependencies</title>
<polygon fill="#ffffff" stroke="transparent" points="-4,4 -4,-280 690,-280 690,4 -4,4"/>
<text text-anchor="start" x="322.0091" y="-42.4" font-family="sans-serif" font-weight="bold" font-size="14.00" fill="#000000">Legend</text>
<polygon fill="#ffffb3" stroke="transparent" points="109,-10 109,-30 129,-30 129,-10 109,-10"/>
<text text-anchor="start" x="132.629" y="-15.4" font-family="sans-serif" font-size="14.00" fill="#000000"> &#160;Declarations</text>
<polygon fill="#8dd3c7" stroke="transparent" points="222,-10 222,-30 242,-30 242,-10 222,-10"/>
<text text-anchor="start" x="245.7251" y="-15.4" font-family="sans-serif" font-size="14.00" fill="#000000"> &#160;Module</text>
<polygon fill="#80b1d3" stroke="transparent" points="308,-10 308,-30 328,-30 328,-10 308,-10"/>
<text text-anchor="start" x="331.7812" y="-15.4" font-family="sans-serif" font-size="14.00" fill="#000000"> &#160;Bootstrap</text>
<polygon fill="#fdb462" stroke="transparent" points="405,-10 405,-30 425,-30 425,-10 405,-10"/>
<text text-anchor="start" x="428.6732" y="-15.4" font-family="sans-serif" font-size="14.00" fill="#000000"> &#160;Providers</text>
<polygon fill="#fb8072" stroke="transparent" points="501,-10 501,-30 521,-30 521,-10 501,-10"/>
<text text-anchor="start" x="524.7258" y="-15.4" font-family="sans-serif" font-size="14.00" fill="#000000"> &#160;Exports</text>
<g id="clust1" class="cluster">
<title>cluster_DiaModule</title>
<polygon fill="none" stroke="#000000" stroke-dasharray="1,5" points="8,-70 8,-268 678,-268 678,-70 8,-70"/>
</g>
<g id="clust2" class="cluster">
<title>cluster_DiaModule_declarations</title>
<polygon fill="none" stroke="#000000" points="366,-78 366,-130 670,-130 670,-78 366,-78"/>
</g>
<g id="clust6" class="cluster">
<title>cluster_DiaModule_exports</title>
<polygon fill="none" stroke="#000000" points="200,-208 200,-260 510,-260 510,-208 200,-208"/>
</g>
<g id="clust8" class="cluster">
<title>cluster_DiaModule_providers</title>
<polygon fill="none" stroke="#000000" points="16,-78 16,-130 358,-130 358,-78 16,-78"/>
</g>
<!-- DiaGraphComponent -->
<g id="node1" class="node">
<title>DiaGraphComponent</title>
<polygon fill="#ffffb3" stroke="#000000" points="662.0268,-122 525.9732,-122 525.9732,-86 662.0268,-86 662.0268,-122"/>
<text text-anchor="middle" x="594" y="-99.8" font-family="Times,serif" font-size="14.00" fill="#000000">DiaGraphComponent</text>
</g>
<!-- DiaModule -->
<g id="node3" class="node">
<title>DiaModule</title>
<polygon fill="#8dd3c7" stroke="#000000" points="393.762,-187 390.762,-191 369.762,-191 366.762,-187 314.238,-187 314.238,-151 393.762,-151 393.762,-187"/>
<text text-anchor="middle" x="354" y="-164.8" font-family="Times,serif" font-size="14.00" fill="#000000">DiaModule</text>
</g>
<!-- DiaGraphComponent&#45;&gt;DiaModule -->
<g id="edge1" class="edge">
<title>DiaGraphComponent&#45;&gt;DiaModule</title>
<path fill="none" stroke="#000000" d="M594,-122.1061C594,-141.3391 594,-169 594,-169 594,-169 403.9005,-169 403.9005,-169"/>
<polygon fill="#000000" stroke="#000000" points="403.9006,-165.5001 393.9005,-169 403.9005,-172.5001 403.9006,-165.5001"/>
</g>
<!-- DiaPaperComponent -->
<g id="node2" class="node">
<title>DiaPaperComponent</title>
<polygon fill="#ffffb3" stroke="#000000" points="507.9173,-122 374.0827,-122 374.0827,-86 507.9173,-86 507.9173,-122"/>
<text text-anchor="middle" x="441" y="-99.8" font-family="Times,serif" font-size="14.00" fill="#000000">DiaPaperComponent</text>
</g>
<!-- DiaPaperComponent&#45;&gt;DiaModule -->
<g id="edge2" class="edge">
<title>DiaPaperComponent&#45;&gt;DiaModule</title>
<path fill="none" stroke="#000000" d="M384.0863,-122.1061C384.0863,-122.1061 384.0863,-140.991 384.0863,-140.991"/>
<polygon fill="#000000" stroke="#000000" points="380.5863,-140.9909 384.0863,-150.991 387.5863,-140.991 380.5863,-140.9909"/>
</g>
<!-- DiaGraphComponent  -->
<g id="node4" class="node">
<title>DiaGraphComponent </title>
<polygon fill="#fb8072" stroke="#000000" points="502.026,-252 361.974,-252 361.974,-216 502.026,-216 502.026,-252"/>
<text text-anchor="middle" x="432" y="-229.8" font-family="Times,serif" font-size="14.00" fill="#000000">DiaGraphComponent </text>
</g>
<!-- DiaModule&#45;&gt;DiaGraphComponent  -->
<g id="edge3" class="edge">
<title>DiaModule&#45;&gt;DiaGraphComponent </title>
<path fill="none" stroke="#000000" stroke-dasharray="5,2" d="M377.9339,-187.1061C377.9339,-187.1061 377.9339,-205.991 377.9339,-205.991"/>
<polygon fill="#000000" stroke="#000000" points="374.434,-205.9909 377.9339,-215.991 381.434,-205.991 374.434,-205.9909"/>
</g>
<!-- DiaPaperComponent  -->
<g id="node5" class="node">
<title>DiaPaperComponent </title>
<polygon fill="#fb8072" stroke="#000000" points="344.4166,-252 207.5834,-252 207.5834,-216 344.4166,-216 344.4166,-252"/>
<text text-anchor="middle" x="276" y="-229.8" font-family="Times,serif" font-size="14.00" fill="#000000">DiaPaperComponent </text>
</g>
<!-- DiaModule&#45;&gt;DiaPaperComponent  -->
<g id="edge4" class="edge">
<title>DiaModule&#45;&gt;DiaPaperComponent </title>
<path fill="none" stroke="#000000" stroke-dasharray="5,2" d="M329.2888,-187.1061C329.2888,-187.1061 329.2888,-205.991 329.2888,-205.991"/>
<polygon fill="#000000" stroke="#000000" points="325.7888,-205.9909 329.2888,-215.991 332.7888,-205.991 325.7888,-205.9909"/>
</g>
<!-- DiaGraphService -->
<g id="node6" class="node">
<title>DiaGraphService</title>
<ellipse fill="#fdb462" stroke="#000000" cx="272" cy="-104" rx="78.1269" ry="18"/>
<text text-anchor="middle" x="272" y="-99.8" font-family="Times,serif" font-size="14.00" fill="#000000">DiaGraphService</text>
</g>
<!-- DiaGraphService&#45;&gt;DiaModule -->
<g id="edge5" class="edge">
<title>DiaGraphService&#45;&gt;DiaModule</title>
<path fill="none" stroke="#000000" d="M332.0913,-115.6207C332.0913,-115.6207 332.0913,-140.8534 332.0913,-140.8534"/>
<polygon fill="#000000" stroke="#000000" points="328.5914,-140.8533 332.0913,-150.8534 335.5914,-140.8534 328.5914,-140.8533"/>
</g>
<!-- DiaPaperService -->
<g id="node7" class="node">
<title>DiaPaperService</title>
<ellipse fill="#fdb462" stroke="#000000" cx="100" cy="-104" rx="75.8373" ry="18"/>
<text text-anchor="middle" x="100" y="-99.8" font-family="Times,serif" font-size="14.00" fill="#000000">DiaPaperService</text>
</g>
<!-- DiaPaperService&#45;&gt;DiaModule -->
<g id="edge6" class="edge">
<title>DiaPaperService&#45;&gt;DiaModule</title>
<path fill="none" stroke="#000000" d="M100,-122.1061C100,-141.3391 100,-169 100,-169 100,-169 304.0331,-169 304.0331,-169"/>
<polygon fill="#000000" stroke="#000000" points="304.0331,-172.5001 314.0331,-169 304.033,-165.5001 304.0331,-172.5001"/>
</g>
</g>
</svg>
