<?xml version="1.0" encoding="UTF-8" standalone="no"?>
<!DOCTYPE svg PUBLIC "-//W3C//DTD SVG 1.1//EN"
 "http://www.w3.org/Graphics/SVG/1.1/DTD/svg11.dtd">
<!-- Generated by graphviz version 2.40.1 (20161225.0304)
 -->
<!-- Title: dependencies Pages: 1 -->
<svg width="504pt" height="284pt"
 viewBox="0.00 0.00 504.00 284.00" xmlns="http://www.w3.org/2000/svg" xmlns:xlink="http://www.w3.org/1999/xlink">
<g id="graph0" class="graph" transform="scale(1 1) rotate(0) translate(4 280)">
<title>dependencies</title>
<polygon fill="#ffffff" stroke="transparent" points="-4,4 -4,-280 500,-280 500,4 -4,4"/>
<text text-anchor="start" x="227.0091" y="-42.4" font-family="sans-serif" font-weight="bold" font-size="14.00" fill="#000000">Legend</text>
<polygon fill="#ffffb3" stroke="transparent" points="14,-10 14,-30 34,-30 34,-10 14,-10"/>
<text text-anchor="start" x="37.629" y="-15.4" font-family="sans-serif" font-size="14.00" fill="#000000"> &#160;Declarations</text>
<polygon fill="#8dd3c7" stroke="transparent" points="127,-10 127,-30 147,-30 147,-10 127,-10"/>
<text text-anchor="start" x="150.7251" y="-15.4" font-family="sans-serif" font-size="14.00" fill="#000000"> &#160;Module</text>
<polygon fill="#80b1d3" stroke="transparent" points="213,-10 213,-30 233,-30 233,-10 213,-10"/>
<text text-anchor="start" x="236.7812" y="-15.4" font-family="sans-serif" font-size="14.00" fill="#000000"> &#160;Bootstrap</text>
<polygon fill="#fdb462" stroke="transparent" points="310,-10 310,-30 330,-30 330,-10 310,-10"/>
<text text-anchor="start" x="333.6732" y="-15.4" font-family="sans-serif" font-size="14.00" fill="#000000"> &#160;Providers</text>
<polygon fill="#fb8072" stroke="transparent" points="406,-10 406,-30 426,-30 426,-10 406,-10"/>
<text text-anchor="start" x="429.7258" y="-15.4" font-family="sans-serif" font-size="14.00" fill="#000000"> &#160;Exports</text>
<g id="clust1" class="cluster">
<title>cluster_UmlClassModule</title>
<polygon fill="none" stroke="#000000" stroke-dasharray="1,5" points="74,-70 74,-268 422,-268 422,-70 74,-70"/>
</g>
<g id="clust2" class="cluster">
<title>cluster_UmlClassModule_declarations</title>
<polygon fill="none" stroke="#000000" points="262,-78 262,-130 414,-130 414,-78 262,-78"/>
</g>
<g id="clust5" class="cluster">
<title>cluster_UmlClassModule_exports</title>
<polygon fill="none" stroke="#000000" points="174,-208 174,-260 330,-260 330,-208 174,-208"/>
</g>
<g id="clust7" class="cluster">
<title>cluster_UmlClassModule_providers</title>
<polygon fill="none" stroke="#000000" points="82,-78 82,-130 254,-130 254,-78 82,-78"/>
</g>
<!-- UmlClassComponent -->
<g id="node1" class="node">
<title>UmlClassComponent</title>
<polygon fill="#ffffb3" stroke="#000000" points="406.0519,-122 269.9481,-122 269.9481,-86 406.0519,-86 406.0519,-122"/>
<text text-anchor="middle" x="338" y="-99.8" font-family="Times,serif" font-size="14.00" fill="#000000">UmlClassComponent</text>
</g>
<!-- UmlClassModule -->
<g id="node2" class="node">
<title>UmlClassModule</title>
<polygon fill="#8dd3c7" stroke="#000000" points="309.2688,-187 306.2688,-191 285.2688,-191 282.2688,-187 194.7312,-187 194.7312,-151 309.2688,-151 309.2688,-187"/>
<text text-anchor="middle" x="252" y="-164.8" font-family="Times,serif" font-size="14.00" fill="#000000">UmlClassModule</text>
</g>
<!-- UmlClassComponent&#45;&gt;UmlClassModule -->
<g id="edge1" class="edge">
<title>UmlClassComponent&#45;&gt;UmlClassModule</title>
<path fill="none" stroke="#000000" d="M289.5544,-122.1061C289.5544,-122.1061 289.5544,-140.991 289.5544,-140.991"/>
<polygon fill="#000000" stroke="#000000" points="286.0544,-140.9909 289.5544,-150.991 293.0544,-140.991 286.0544,-140.9909"/>
</g>
<!-- UmlClassComponent  -->
<g id="node3" class="node">
<title>UmlClassComponent </title>
<polygon fill="#fb8072" stroke="#000000" points="322.0512,-252 181.9488,-252 181.9488,-216 322.0512,-216 322.0512,-252"/>
<text text-anchor="middle" x="252" y="-229.8" font-family="Times,serif" font-size="14.00" fill="#000000">UmlClassComponent </text>
</g>
<!-- UmlClassModule&#45;&gt;UmlClassComponent  -->
<g id="edge2" class="edge">
<title>UmlClassModule&#45;&gt;UmlClassComponent </title>
<path fill="none" stroke="#000000" stroke-dasharray="5,2" d="M252,-187.1061C252,-187.1061 252,-205.991 252,-205.991"/>
<polygon fill="#000000" stroke="#000000" points="248.5001,-205.9909 252,-215.991 255.5001,-205.991 248.5001,-205.9909"/>
</g>
<!-- UmlClassService -->
<g id="node4" class="node">
<title>UmlClassService</title>
<ellipse fill="#fdb462" stroke="#000000" cx="168" cy="-104" rx="78.1617" ry="18"/>
<text text-anchor="middle" x="168" y="-99.8" font-family="Times,serif" font-size="14.00" fill="#000000">UmlClassService</text>
</g>
<!-- UmlClassService&#45;&gt;UmlClassModule -->
<g id="edge3" class="edge">
<title>UmlClassService&#45;&gt;UmlClassModule</title>
<path fill="none" stroke="#000000" d="M220.3483,-117.468C220.3483,-117.468 220.3483,-140.8642 220.3483,-140.8642"/>
<polygon fill="#000000" stroke="#000000" points="216.8484,-140.8641 220.3483,-150.8642 223.8484,-140.8642 216.8484,-140.8641"/>
</g>
</g>
</svg>
