<?xml version="1.0" encoding="UTF-8" standalone="no"?>
<!DOCTYPE svg PUBLIC "-//W3C//DTD SVG 1.1//EN"
 "http://www.w3.org/Graphics/SVG/1.1/DTD/svg11.dtd">
<!-- Generated by graphviz version 2.40.1 (20161225.0304)
 -->
<!-- Title: dependencies Pages: 1 -->
<svg width="504pt" height="284pt"
 viewBox="0.00 0.00 504.00 284.00" xmlns="http://www.w3.org/2000/svg" xmlns:xlink="http://www.w3.org/1999/xlink">
<g id="graph0" class="graph" transform="scale(1 1) rotate(0) translate(4 280)">
<title>dependencies</title>
<polygon fill="#ffffff" stroke="transparent" points="-4,4 -4,-280 500,-280 500,4 -4,4"/>
<text text-anchor="start" x="227.0091" y="-42.4" font-family="sans-serif" font-weight="bold" font-size="14.00" fill="#000000">Legend</text>
<polygon fill="#ffffb3" stroke="transparent" points="14,-10 14,-30 34,-30 34,-10 14,-10"/>
<text text-anchor="start" x="37.629" y="-15.4" font-family="sans-serif" font-size="14.00" fill="#000000"> &#160;Declarations</text>
<polygon fill="#8dd3c7" stroke="transparent" points="127,-10 127,-30 147,-30 147,-10 127,-10"/>
<text text-anchor="start" x="150.7251" y="-15.4" font-family="sans-serif" font-size="14.00" fill="#000000"> &#160;Module</text>
<polygon fill="#80b1d3" stroke="transparent" points="213,-10 213,-30 233,-30 233,-10 213,-10"/>
<text text-anchor="start" x="236.7812" y="-15.4" font-family="sans-serif" font-size="14.00" fill="#000000"> &#160;Bootstrap</text>
<polygon fill="#fdb462" stroke="transparent" points="310,-10 310,-30 330,-30 330,-10 310,-10"/>
<text text-anchor="start" x="333.6732" y="-15.4" font-family="sans-serif" font-size="14.00" fill="#000000"> &#160;Providers</text>
<polygon fill="#fb8072" stroke="transparent" points="406,-10 406,-30 426,-30 426,-10 406,-10"/>
<text text-anchor="start" x="429.7258" y="-15.4" font-family="sans-serif" font-size="14.00" fill="#000000"> &#160;Exports</text>
<g id="clust1" class="cluster">
<title>cluster_UmlGeneralizationModule</title>
<polygon fill="none" stroke="#000000" stroke-dasharray="1,5" points="12,-70 12,-268 484,-268 484,-70 12,-70"/>
</g>
<g id="clust2" class="cluster">
<title>cluster_UmlGeneralizationModule_declarations</title>
<polygon fill="none" stroke="#000000" points="272,-78 272,-130 476,-130 476,-78 272,-78"/>
</g>
<g id="clust5" class="cluster">
<title>cluster_UmlGeneralizationModule_exports</title>
<polygon fill="none" stroke="#000000" points="153,-208 153,-260 361,-260 361,-208 153,-208"/>
</g>
<g id="clust7" class="cluster">
<title>cluster_UmlGeneralizationModule_providers</title>
<polygon fill="none" stroke="#000000" points="20,-78 20,-130 264,-130 264,-78 20,-78"/>
</g>
<!-- UmlGeneralizationComponent -->
<g id="node1" class="node">
<title>UmlGeneralizationComponent</title>
<polygon fill="#ffffb3" stroke="#000000" points="468.1232,-122 279.8768,-122 279.8768,-86 468.1232,-86 468.1232,-122"/>
<text text-anchor="middle" x="374" y="-99.8" font-family="Times,serif" font-size="14.00" fill="#000000">UmlGeneralizationComponent</text>
</g>
<!-- UmlGeneralizationModule -->
<g id="node2" class="node">
<title>UmlGeneralizationModule</title>
<polygon fill="#8dd3c7" stroke="#000000" points="340.3403,-187 337.3403,-191 316.3403,-191 313.3403,-187 173.6597,-187 173.6597,-151 340.3403,-151 340.3403,-187"/>
<text text-anchor="middle" x="257" y="-164.8" font-family="Times,serif" font-size="14.00" fill="#000000">UmlGeneralizationModule</text>
</g>
<!-- UmlGeneralizationComponent&#45;&gt;UmlGeneralizationModule -->
<g id="edge1" class="edge">
<title>UmlGeneralizationComponent&#45;&gt;UmlGeneralizationModule</title>
<path fill="none" stroke="#000000" d="M310.0544,-122.1061C310.0544,-122.1061 310.0544,-140.991 310.0544,-140.991"/>
<polygon fill="#000000" stroke="#000000" points="306.5544,-140.9909 310.0544,-150.991 313.5544,-140.991 306.5544,-140.9909"/>
</g>
<!-- UmlGeneralizationComponent  -->
<g id="node3" class="node">
<title>UmlGeneralizationComponent </title>
<polygon fill="#fb8072" stroke="#000000" points="353.1228,-252 160.8772,-252 160.8772,-216 353.1228,-216 353.1228,-252"/>
<text text-anchor="middle" x="257" y="-229.8" font-family="Times,serif" font-size="14.00" fill="#000000">UmlGeneralizationComponent </text>
</g>
<!-- UmlGeneralizationModule&#45;&gt;UmlGeneralizationComponent  -->
<g id="edge2" class="edge">
<title>UmlGeneralizationModule&#45;&gt;UmlGeneralizationComponent </title>
<path fill="none" stroke="#000000" stroke-dasharray="5,2" d="M257,-187.1061C257,-187.1061 257,-205.991 257,-205.991"/>
<polygon fill="#000000" stroke="#000000" points="253.5001,-205.9909 257,-215.991 260.5001,-205.991 253.5001,-205.9909"/>
</g>
<!-- UmlGeneralizationService -->
<g id="node4" class="node">
<title>UmlGeneralizationService</title>
<ellipse fill="#fdb462" stroke="#000000" cx="142" cy="-104" rx="113.9977" ry="18"/>
<text text-anchor="middle" x="142" y="-99.8" font-family="Times,serif" font-size="14.00" fill="#000000">UmlGeneralizationService</text>
</g>
<!-- UmlGeneralizationService&#45;&gt;UmlGeneralizationModule -->
<g id="edge3" class="edge">
<title>UmlGeneralizationService&#45;&gt;UmlGeneralizationModule</title>
<path fill="none" stroke="#000000" d="M214.7894,-118.104C214.7894,-118.104 214.7894,-140.7209 214.7894,-140.7209"/>
<polygon fill="#000000" stroke="#000000" points="211.2895,-140.7209 214.7894,-150.7209 218.2895,-140.7209 211.2895,-140.7209"/>
</g>
</g>
</svg>
