<?xml version="1.0" encoding="UTF-8" standalone="no"?>
<!DOCTYPE svg PUBLIC "-//W3C//DTD SVG 1.1//EN"
 "http://www.w3.org/Graphics/SVG/1.1/DTD/svg11.dtd">
<!-- Generated by graphviz version 2.40.1 (20161225.0304)
 -->
<!-- Title: dependencies Pages: 1 -->
<svg width="1561pt" height="284pt"
 viewBox="0.00 0.00 1561.00 284.00" xmlns="http://www.w3.org/2000/svg" xmlns:xlink="http://www.w3.org/1999/xlink">
<g id="graph0" class="graph" transform="scale(1 1) rotate(0) translate(4 280)">
<title>dependencies</title>
<polygon fill="#ffffff" stroke="transparent" points="-4,4 -4,-280 1557,-280 1557,4 -4,4"/>
<text text-anchor="start" x="755.5091" y="-42.4" font-family="sans-serif" font-weight="bold" font-size="14.00" fill="#000000">Legend</text>
<polygon fill="#ffffb3" stroke="transparent" points="542.5,-10 542.5,-30 562.5,-30 562.5,-10 542.5,-10"/>
<text text-anchor="start" x="566.129" y="-15.4" font-family="sans-serif" font-size="14.00" fill="#000000"> &#160;Declarations</text>
<polygon fill="#8dd3c7" stroke="transparent" points="655.5,-10 655.5,-30 675.5,-30 675.5,-10 655.5,-10"/>
<text text-anchor="start" x="679.2251" y="-15.4" font-family="sans-serif" font-size="14.00" fill="#000000"> &#160;Module</text>
<polygon fill="#80b1d3" stroke="transparent" points="741.5,-10 741.5,-30 761.5,-30 761.5,-10 741.5,-10"/>
<text text-anchor="start" x="765.2812" y="-15.4" font-family="sans-serif" font-size="14.00" fill="#000000"> &#160;Bootstrap</text>
<polygon fill="#fdb462" stroke="transparent" points="838.5,-10 838.5,-30 858.5,-30 858.5,-10 838.5,-10"/>
<text text-anchor="start" x="862.1732" y="-15.4" font-family="sans-serif" font-size="14.00" fill="#000000"> &#160;Providers</text>
<polygon fill="#fb8072" stroke="transparent" points="934.5,-10 934.5,-30 954.5,-30 954.5,-10 934.5,-10"/>
<text text-anchor="start" x="958.2258" y="-15.4" font-family="sans-serif" font-size="14.00" fill="#000000"> &#160;Exports</text>
<g id="clust1" class="cluster">
<title>cluster_ShapesUmlModule</title>
<polygon fill="none" stroke="#000000" stroke-dasharray="1,5" points="8,-70 8,-268 1545,-268 1545,-70 8,-70"/>
</g>
<g id="clust2" class="cluster">
<title>cluster_ShapesUmlModule_declarations</title>
<polygon fill="none" stroke="#000000" points="1375,-78 1375,-130 1537,-130 1537,-78 1375,-78"/>
</g>
<g id="clust4" class="cluster">
<title>cluster_ShapesUmlModule_imports</title>
<polygon fill="none" stroke="#000000" points="210,-78 210,-130 1367,-130 1367,-78 210,-78"/>
</g>
<g id="clust5" class="cluster">
<title>cluster_ShapesUmlModule_exports</title>
<polygon fill="none" stroke="#000000" points="116,-208 116,-260 1463,-260 1463,-208 116,-208"/>
</g>
<g id="clust7" class="cluster">
<title>cluster_ShapesUmlModule_providers</title>
<polygon fill="none" stroke="#000000" points="16,-78 16,-130 202,-130 202,-78 16,-78"/>
</g>
<!-- ShapesUmlComponent -->
<g id="node1" class="node">
<title>ShapesUmlComponent</title>
<polygon fill="#ffffb3" stroke="#000000" points="1528.8767,-122 1383.1233,-122 1383.1233,-86 1528.8767,-86 1528.8767,-122"/>
<text text-anchor="middle" x="1456" y="-99.8" font-family="Times,serif" font-size="14.00" fill="#000000">ShapesUmlComponent</text>
</g>
<!-- ShapesUmlModule -->
<g id="node2" class="node">
<title>ShapesUmlModule</title>
<polygon fill="#8dd3c7" stroke="#000000" points="887.094,-187 884.094,-191 863.094,-191 860.094,-187 762.906,-187 762.906,-151 887.094,-151 887.094,-187"/>
<text text-anchor="middle" x="825" y="-164.8" font-family="Times,serif" font-size="14.00" fill="#000000">ShapesUmlModule</text>
</g>
<!-- ShapesUmlComponent&#45;&gt;ShapesUmlModule -->
<g id="edge1" class="edge">
<title>ShapesUmlComponent&#45;&gt;ShapesUmlModule</title>
<path fill="none" stroke="#000000" d="M1418.875,-122.1061C1418.875,-141.3391 1418.875,-169 1418.875,-169 1418.875,-169 897.1532,-169 897.1532,-169"/>
<polygon fill="#000000" stroke="#000000" points="897.1533,-165.5001 887.1532,-169 897.1532,-172.5001 897.1533,-165.5001"/>
</g>
<!-- ShapesUmlComponent  -->
<g id="node10" class="node">
<title>ShapesUmlComponent </title>
<polygon fill="#fb8072" stroke="#000000" points="1454.8771,-252 1305.1229,-252 1305.1229,-216 1454.8771,-216 1454.8771,-252"/>
<text text-anchor="middle" x="1380" y="-229.8" font-family="Times,serif" font-size="14.00" fill="#000000">ShapesUmlComponent </text>
</g>
<!-- ShapesUmlModule&#45;&gt;ShapesUmlComponent  -->
<g id="edge9" class="edge">
<title>ShapesUmlModule&#45;&gt;ShapesUmlComponent </title>
<path fill="none" stroke="#000000" stroke-dasharray="5,2" d="M887.183,-174C1022.5988,-174 1332.1208,-174 1332.1208,-174 1332.1208,-174 1332.1208,-205.998 1332.1208,-205.998"/>
<polygon fill="#000000" stroke="#000000" points="1328.6209,-205.998 1332.1208,-215.998 1335.6209,-205.9981 1328.6209,-205.998"/>
</g>
<!-- UmlAbstractModule  -->
<g id="node11" class="node">
<title>UmlAbstractModule </title>
<polygon fill="#fb8072" stroke="#000000" points="1287.8603,-252 1152.1397,-252 1152.1397,-216 1287.8603,-216 1287.8603,-252"/>
<text text-anchor="middle" x="1220" y="-229.8" font-family="Times,serif" font-size="14.00" fill="#000000">UmlAbstractModule </text>
</g>
<!-- ShapesUmlModule&#45;&gt;UmlAbstractModule  -->
<g id="edge10" class="edge">
<title>ShapesUmlModule&#45;&gt;UmlAbstractModule </title>
<path fill="none" stroke="#000000" stroke-dasharray="5,2" d="M887.3764,-178C989.408,-178 1180.7638,-178 1180.7638,-178 1180.7638,-178 1180.7638,-205.973 1180.7638,-205.973"/>
<polygon fill="#000000" stroke="#000000" points="1177.2639,-205.973 1180.7638,-215.973 1184.2639,-205.973 1177.2639,-205.973"/>
</g>
<!-- UmlAggregationModule  -->
<g id="node12" class="node">
<title>UmlAggregationModule </title>
<polygon fill="#fb8072" stroke="#000000" points="1133.9152,-252 976.0848,-252 976.0848,-216 1133.9152,-216 1133.9152,-252"/>
<text text-anchor="middle" x="1055" y="-229.8" font-family="Times,serif" font-size="14.00" fill="#000000">UmlAggregationModule </text>
</g>
<!-- ShapesUmlModule&#45;&gt;UmlAggregationModule  -->
<g id="edge11" class="edge">
<title>ShapesUmlModule&#45;&gt;UmlAggregationModule </title>
<path fill="none" stroke="#000000" stroke-dasharray="5,2" d="M887.1098,-183C939.5674,-183 1006.2134,-183 1006.2134,-183 1006.2134,-183 1006.2134,-205.8757 1006.2134,-205.8757"/>
<polygon fill="#000000" stroke="#000000" points="1002.7134,-205.8757 1006.2134,-215.8757 1009.7134,-205.8757 1002.7134,-205.8757"/>
</g>
<!-- UmlClassModule  -->
<g id="node13" class="node">
<title>UmlClassModule </title>
<polygon fill="#fb8072" stroke="#000000" points="958.2689,-252 839.7311,-252 839.7311,-216 958.2689,-216 958.2689,-252"/>
<text text-anchor="middle" x="899" y="-229.8" font-family="Times,serif" font-size="14.00" fill="#000000">UmlClassModule </text>
</g>
<!-- ShapesUmlModule&#45;&gt;UmlClassModule  -->
<g id="edge12" class="edge">
<title>ShapesUmlModule&#45;&gt;UmlClassModule </title>
<path fill="none" stroke="#000000" stroke-dasharray="5,2" d="M863.4564,-187.1061C863.4564,-187.1061 863.4564,-205.991 863.4564,-205.991"/>
<polygon fill="#000000" stroke="#000000" points="859.9564,-205.9909 863.4564,-215.991 866.9564,-205.991 859.9564,-205.9909"/>
</g>
<!-- UmlCompositionModule  -->
<g id="node14" class="node">
<title>UmlCompositionModule </title>
<polygon fill="#fb8072" stroke="#000000" points="822.2814,-252 661.7186,-252 661.7186,-216 822.2814,-216 822.2814,-252"/>
<text text-anchor="middle" x="742" y="-229.8" font-family="Times,serif" font-size="14.00" fill="#000000">UmlCompositionModule </text>
</g>
<!-- ShapesUmlModule&#45;&gt;UmlCompositionModule  -->
<g id="edge13" class="edge">
<title>ShapesUmlModule&#45;&gt;UmlCompositionModule </title>
<path fill="none" stroke="#000000" stroke-dasharray="5,2" d="M792.5468,-187.1061C792.5468,-187.1061 792.5468,-205.991 792.5468,-205.991"/>
<polygon fill="#000000" stroke="#000000" points="789.0469,-205.9909 792.5468,-215.991 796.0469,-205.991 789.0469,-205.9909"/>
</g>
<!-- UmlGeneralizationModule  -->
<g id="node15" class="node">
<title>UmlGeneralizationModule </title>
<polygon fill="#fb8072" stroke="#000000" points="644.3405,-252 473.6595,-252 473.6595,-216 644.3405,-216 644.3405,-252"/>
<text text-anchor="middle" x="559" y="-229.8" font-family="Times,serif" font-size="14.00" fill="#000000">UmlGeneralizationModule </text>
</g>
<!-- ShapesUmlModule&#45;&gt;UmlGeneralizationModule  -->
<g id="edge14" class="edge">
<title>ShapesUmlModule&#45;&gt;UmlGeneralizationModule </title>
<path fill="none" stroke="#000000" stroke-dasharray="5,2" d="M762.8304,-183C697.118,-183 602.875,-183 602.875,-183 602.875,-183 602.875,-205.8757 602.875,-205.8757"/>
<polygon fill="#000000" stroke="#000000" points="599.3751,-205.8757 602.875,-215.8757 606.3751,-205.8757 599.3751,-205.8757"/>
</g>
<!-- UmlImplementationModule  -->
<g id="node16" class="node">
<title>UmlImplementationModule </title>
<polygon fill="#fb8072" stroke="#000000" points="456.0861,-252 279.9139,-252 279.9139,-216 456.0861,-216 456.0861,-252"/>
<text text-anchor="middle" x="368" y="-229.8" font-family="Times,serif" font-size="14.00" fill="#000000">UmlImplementationModule </text>
</g>
<!-- ShapesUmlModule&#45;&gt;UmlImplementationModule  -->
<g id="edge15" class="edge">
<title>ShapesUmlModule&#45;&gt;UmlImplementationModule </title>
<path fill="none" stroke="#000000" stroke-dasharray="5,2" d="M762.9299,-178C647.9387,-178 413.375,-178 413.375,-178 413.375,-178 413.375,-205.973 413.375,-205.973"/>
<polygon fill="#000000" stroke="#000000" points="409.8751,-205.973 413.375,-215.973 416.8751,-205.973 409.8751,-205.973"/>
</g>
<!-- UmlInterfaceModule  -->
<g id="node17" class="node">
<title>UmlInterfaceModule </title>
<polygon fill="#fb8072" stroke="#000000" points="261.6688,-252 124.3312,-252 124.3312,-216 261.6688,-216 261.6688,-252"/>
<text text-anchor="middle" x="193" y="-229.8" font-family="Times,serif" font-size="14.00" fill="#000000">UmlInterfaceModule </text>
</g>
<!-- ShapesUmlModule&#45;&gt;UmlInterfaceModule  -->
<g id="edge16" class="edge">
<title>ShapesUmlModule&#45;&gt;UmlInterfaceModule </title>
<path fill="none" stroke="#000000" stroke-dasharray="5,2" d="M762.9353,-174C612.3463,-174 239.875,-174 239.875,-174 239.875,-174 239.875,-205.998 239.875,-205.998"/>
<polygon fill="#000000" stroke="#000000" points="236.3751,-205.998 239.875,-215.998 243.3751,-205.9981 236.3751,-205.998"/>
</g>
<!-- UmlAbstractModule -->
<g id="node3" class="node">
<title>UmlAbstractModule</title>
<polygon fill="#8dd3c7" stroke="#000000" points="1358.8599,-122 1355.8599,-126 1334.8599,-126 1331.8599,-122 1227.1401,-122 1227.1401,-86 1358.8599,-86 1358.8599,-122"/>
<text text-anchor="middle" x="1293" y="-99.8" font-family="Times,serif" font-size="14.00" fill="#000000">UmlAbstractModule</text>
</g>
<!-- UmlAbstractModule&#45;&gt;ShapesUmlModule -->
<g id="edge2" class="edge">
<title>UmlAbstractModule&#45;&gt;ShapesUmlModule</title>
<path fill="none" stroke="#000000" d="M1257.375,-122.302C1257.375,-140.2699 1257.375,-165 1257.375,-165 1257.375,-165 897.4093,-165 897.4093,-165"/>
<polygon fill="#000000" stroke="#000000" points="897.4093,-161.5001 887.4093,-165 897.4092,-168.5001 897.4093,-161.5001"/>
</g>
<!-- UmlAggregationModule -->
<g id="node4" class="node">
<title>UmlAggregationModule</title>
<polygon fill="#8dd3c7" stroke="#000000" points="1209.4158,-122 1206.4158,-126 1185.4158,-126 1182.4158,-122 1054.5842,-122 1054.5842,-86 1209.4158,-86 1209.4158,-122"/>
<text text-anchor="middle" x="1132" y="-99.8" font-family="Times,serif" font-size="14.00" fill="#000000">UmlAggregationModule</text>
</g>
<!-- UmlAggregationModule&#45;&gt;ShapesUmlModule -->
<g id="edge3" class="edge">
<title>UmlAggregationModule&#45;&gt;ShapesUmlModule</title>
<path fill="none" stroke="#000000" d="M1094.375,-122.027C1094.375,-138.3976 1094.375,-160 1094.375,-160 1094.375,-160 897.1383,-160 897.1383,-160"/>
<polygon fill="#000000" stroke="#000000" points="897.1383,-156.5001 887.1383,-160 897.1383,-163.5001 897.1383,-156.5001"/>
</g>
<!-- UmlClassModule -->
<g id="node5" class="node">
<title>UmlClassModule</title>
<polygon fill="#8dd3c7" stroke="#000000" points="1036.2688,-122 1033.2688,-126 1012.2688,-126 1009.2688,-122 921.7312,-122 921.7312,-86 1036.2688,-86 1036.2688,-122"/>
<text text-anchor="middle" x="979" y="-99.8" font-family="Times,serif" font-size="14.00" fill="#000000">UmlClassModule</text>
</g>
<!-- UmlClassModule&#45;&gt;ShapesUmlModule -->
<g id="edge4" class="edge">
<title>UmlClassModule&#45;&gt;ShapesUmlModule</title>
<path fill="none" stroke="#000000" d="M939.875,-122.1871C939.875,-137.1824 939.875,-156 939.875,-156 939.875,-156 897.1445,-156 897.1445,-156"/>
<polygon fill="#000000" stroke="#000000" points="897.1445,-152.5001 887.1445,-156 897.1444,-159.5001 897.1445,-152.5001"/>
</g>
<!-- UmlCompositionModule -->
<g id="node6" class="node">
<title>UmlCompositionModule</title>
<polygon fill="#8dd3c7" stroke="#000000" points="903.2814,-122 900.2814,-126 879.2814,-126 876.2814,-122 746.7186,-122 746.7186,-86 903.2814,-86 903.2814,-122"/>
<text text-anchor="middle" x="825" y="-99.8" font-family="Times,serif" font-size="14.00" fill="#000000">UmlCompositionModule</text>
</g>
<!-- UmlCompositionModule&#45;&gt;ShapesUmlModule -->
<g id="edge5" class="edge">
<title>UmlCompositionModule&#45;&gt;ShapesUmlModule</title>
<path fill="none" stroke="#000000" d="M825,-122.1061C825,-122.1061 825,-140.991 825,-140.991"/>
<polygon fill="#000000" stroke="#000000" points="821.5001,-140.9909 825,-150.991 828.5001,-140.991 821.5001,-140.9909"/>
</g>
<!-- UmlGeneralizationModule -->
<g id="node7" class="node">
<title>UmlGeneralizationModule</title>
<polygon fill="#8dd3c7" stroke="#000000" points="728.3403,-122 725.3403,-126 704.3403,-126 701.3403,-122 561.6597,-122 561.6597,-86 728.3403,-86 728.3403,-122"/>
<text text-anchor="middle" x="645" y="-99.8" font-family="Times,serif" font-size="14.00" fill="#000000">UmlGeneralizationModule</text>
</g>
<!-- UmlGeneralizationModule&#45;&gt;ShapesUmlModule -->
<g id="edge6" class="edge">
<title>UmlGeneralizationModule&#45;&gt;ShapesUmlModule</title>
<path fill="none" stroke="#000000" d="M695.1398,-122.1871C695.1398,-137.1824 695.1398,-156 695.1398,-156 695.1398,-156 752.7324,-156 752.7324,-156"/>
<polygon fill="#000000" stroke="#000000" points="752.7324,-159.5001 762.7324,-156 752.7323,-152.5001 752.7324,-159.5001"/>
</g>
<!-- UmlImplementationModule -->
<g id="node8" class="node">
<title>UmlImplementationModule</title>
<polygon fill="#8dd3c7" stroke="#000000" points="543.5856,-122 540.5856,-126 519.5856,-126 516.5856,-122 370.4144,-122 370.4144,-86 543.5856,-86 543.5856,-122"/>
<text text-anchor="middle" x="457" y="-99.8" font-family="Times,serif" font-size="14.00" fill="#000000">UmlImplementationModule</text>
</g>
<!-- UmlImplementationModule&#45;&gt;ShapesUmlModule -->
<g id="edge7" class="edge">
<title>UmlImplementationModule&#45;&gt;ShapesUmlModule</title>
<path fill="none" stroke="#000000" d="M508.6864,-122.027C508.6864,-138.3976 508.6864,-160 508.6864,-160 508.6864,-160 752.884,-160 752.884,-160"/>
<polygon fill="#000000" stroke="#000000" points="752.884,-163.5001 762.884,-160 752.884,-156.5001 752.884,-163.5001"/>
</g>
<!-- UmlInterfaceModule -->
<g id="node9" class="node">
<title>UmlInterfaceModule</title>
<polygon fill="#8dd3c7" stroke="#000000" points="352.1685,-122 349.1685,-126 328.1685,-126 325.1685,-122 217.8315,-122 217.8315,-86 352.1685,-86 352.1685,-122"/>
<text text-anchor="middle" x="285" y="-99.8" font-family="Times,serif" font-size="14.00" fill="#000000">UmlInterfaceModule</text>
</g>
<!-- UmlInterfaceModule&#45;&gt;ShapesUmlModule -->
<g id="edge8" class="edge">
<title>UmlInterfaceModule&#45;&gt;ShapesUmlModule</title>
<path fill="none" stroke="#000000" d="M315.8957,-122.302C315.8957,-140.2699 315.8957,-165 315.8957,-165 315.8957,-165 752.8285,-165 752.8285,-165"/>
<polygon fill="#000000" stroke="#000000" points="752.8285,-168.5001 762.8285,-165 752.8285,-161.5001 752.8285,-168.5001"/>
</g>
<!-- ShapesUmlService -->
<g id="node18" class="node">
<title>ShapesUmlService</title>
<ellipse fill="#fdb462" stroke="#000000" cx="109" cy="-104" rx="84.5266" ry="18"/>
<text text-anchor="middle" x="109" y="-99.8" font-family="Times,serif" font-size="14.00" fill="#000000">ShapesUmlService</text>
</g>
<!-- ShapesUmlService&#45;&gt;ShapesUmlModule -->
<g id="edge17" class="edge">
<title>ShapesUmlService&#45;&gt;ShapesUmlModule</title>
<path fill="none" stroke="#000000" d="M158.8396,-118.7495C158.8396,-137.9272 158.8396,-169 158.8396,-169 158.8396,-169 752.9274,-169 752.9274,-169"/>
<polygon fill="#000000" stroke="#000000" points="752.9275,-172.5001 762.9274,-169 752.9274,-165.5001 752.9275,-172.5001"/>
</g>
</g>
</svg>
